<svg xmlns="http://www.w3.org/2000/svg">
<defs>
<font
       horiz-adv-x="525"
       id="SNAIL"
       inkscape:label="snail"
       horiz-origin-x="0"
       horiz-origin-y="200"
       vert-origin-x="512"
       vert-origin-y="768"
       vert-adv-y="1024">
      <font-face
         units-per-em="1024"
         ascent="750"
         cap-height="600"
         x-height="400"
         descent="253"
         id="snail"
         font-family="SNAIL" />
      <missing-glyph
         d="M0,0h1000v1024h-1000z"
         id="missing-glyph800" />
      <glyph
         glyph-name=" "
         unicode=" "
         id="glyph3173"
         horiz-adv-x="300,00" />
      <glyph
         glyph-name="!"
         unicode="!"
         id="glyph1415"
         d="m 68.589356,92.49806 -57.839413,-12.43398 -29.698778,51.16624 39.484558,44.05646 54.101578,-23.93786 z m 6.232235,634.50179 -6.998134,0.97449 -1.235741,6.95676 6.234405,3.32502 5.088814,-4.90179 z m -85.604969,-8.18198 -4.295031,-1.84766 -4.122464,2.206 -0.845597,4.59848 3.068022,3.52823 4.671357,-0.19886 2.7570651,-3.77621 z M -15.5,712.5 11.5,629 3.9852814,380.87258 33.941126,186.18968 85.781746,575.85577 76.5,723.5 68.811183,723.28754 59.972349,668.48676 24.395184,660.65833 -9.1923882,715.10556 Z"
         horiz-adv-x="150" />
      <glyph
         glyph-name="&quot;"
         unicode="&quot;"
         id="glyph1318"
         d="m 76.418784,718.85864 3.678105,2.23145 4.03788,-1.48437 1.35705,-4.08243 -2.345668,-3.60634 -4.282048,-0.4146 -2.99396,3.08934 z m 51.979676,2.08884 3.98557,1.60866 3.74266,-2.11306 0.68145,-4.2436 -2.8929,-3.17863 -4.28884,0.27992 -2.4552,3.52768 z m -8.8286,-180.73659 15.82066,170.44012 -7.75233,0.16221 -19.87697,-10.97583 -22.373152,10.7473 -7.74384,-0.58774 z M 0.99088398,722.58227 l 3.67810322,2.23145 4.0378804,-1.48436 1.3570434,-4.08243 -2.3456662,-3.60634 -4.282049,-0.4146 -2.99396089,3.08934 z m 52.39326402,-3.21011 3.985568,1.60866 3.74266,-2.11306 0.681456,-4.2436 -2.892901,-3.17863 -4.288843,0.27992 -2.4552,3.52768 z M 23.411774,532.3853 60.376211,709.07569 52.623877,709.2379 26.570141,697.30817 9.9601674,714.30833 2.2163273,713.72058 Z"
         horiz-adv-x="200" />
      <glyph
         glyph-name=","
         unicode=","
         id="glyph948"
         d="m 57.593881,173.36699 -4.558003,-3.72653 -5.755397,1.24012 -2.618859,5.27297 2.489733,5.33514 5.723505,1.37986 4.647362,-3.6145 z m -51.0977445,-55.3332 -3.3355042,-3.92049 -5.1448202,0.16342 -3.0799821,4.12427 1.3041462,4.97946 4.70622501,2.08503 L 5.5106219,123.086 Z M 5.8369937,-56.41299 58.68688,61.88098 4.4233208,111.19495 l 6.1829412,8.11511 36.711211,10.43372 6.569375,36.32477 7.342243,7.72868 61.442969,-73.03599 -25.512757,-87.80285 z"
         horiz-adv-x="150" />
      <glyph
         glyph-name="-"
         unicode="-"
         id="glyph1302"
         d="m 401.7648,372.0929 -8.79993,-3.42399 -8.16364,4.74524 -1.37997,9.3412 6.44284,6.90304 9.41407,-0.73324 5.29631,-7.81738 z m -0.35354,-100.93947 -8.62062,-1.63745 -6.65508,5.71894 0.32187,8.76885 7.05645,5.21564 8.47738,-2.26506 3.51466,-8.04012 z M 10.381205,318.88312 379.8445,271.50697 l 0.35356,15.20279 -28.28428,42.07285 28.28427,41.7193 -1.41421,14.49569 z"
         horiz-adv-x="450" />
      <glyph
         glyph-name="."
         unicode="."
         id="glyph787"
         d="m 85,92 -59.28044,-21.59253 -38.854374,49.7066 35.267115,52.31288 60.650651,-17.37544 z"
         horiz-adv-x="100" />
      <glyph
         glyph-name=":"
         unicode=":"
         id="glyph1360"
         d="m 86.000001,466 -69.745883,-5.99697 -27.256119,64.47911 52.900675,45.84725 59.950536,-36.14395 z M 6.0000011,89.00001 2.1652229,155.72188 64.436481,179.98716 106.75701,128.26206 70.641282,72.0289 Z"
         horiz-adv-x="150" />
      <glyph
         glyph-name=";"
         unicode=";"
         id="glyph1378"
         d="m 93.267026,474.60599 -63.06165,-18.91466 -37.476037,54.13024 39.900185,52.36899 62.135708,-21.76442 z m -5.956293,-293.9072 -5.280968,-2.60266 -5.327479,2.50609 -1.362281,5.72772 3.628736,4.63625 5.887245,0.0536 3.712535,-4.56943 z m -72.159274,-39.55627 -4.133701,-3.0673 -4.9754386,1.31943 -2.0705711,4.7126 2.3934788,4.55709 5.0551939,0.97001 3.910242,-3.34751 z M 7.696392,-47.04672 52.627559,57.69599 l -41.037761,77.2513 7.853725,6.51174 38.118472,1.88614 24.491312,31.07916 8.896018,5.87383 L 117.3685,100.23718 93.925568,18.3282 Z"
         horiz-adv-x="150" />
      <glyph
         glyph-name="?"
         unicode="?"
         id="glyph1432"
         d="m 78.999998,78 -58.192921,53.90432 33.283449,72.0021 78.763224,-9.40456 15.3949,-77.81445 z m -82.7499982,634.75 -5.4115966,-1.4873 -4.5368902,3.30365 -0.245814,5.60687 4.2303666,3.68801 5.5209938,-1.008 2.6542004,-4.94496 z M 1.6250002,627 l -3.131419,-4.75246 -5.6680293,-0.51487 -3.9364979,4.11043 0.759296,5.64049 4.8833259,2.92315 5.3301105,-1.99539 z M 1.25,718 53.5,700.5 151.32085,726.41926 252.07316,652.89235 276.8219,515.00653 66.388348,305.52273 88.30866,251.78261 170.33304,198.0425 51.539105,253.19683 l -7.071067,94.7523 89.873622,84.81729 70.1188,152.24368 -71.46804,68.41169 L 5.6568543,626.0101 2.5,634.25 38,658 l 1.5,25 -41,28.5 z"
         horiz-adv-x="350" />
      <glyph
         glyph-name="Ё"
         unicode="Ё"
         id="glyph9842"
         d="m 241.51932,737.4176 -44.89835,5.95646 -8.20941,44.54157 39.82471,21.57167 32.82239,-31.20947 z M 73.788579,748.81022 27.3066,749.76399 13.850005,794.2657 52.015286,820.81552 89.059375,792.72246 Z m 260.456151,-543.54375 0.43374,-10.7935 -8.67654,-7.04948 -11.25327,2.00284 -5.35608,9.5471 4.5744,9.90208 11.0602,2.80068 z m 22.90993,-137.40005 -7.98498,-8.59988 -12.10722,0.52603 -7.11255,9.25613 3.2381,11.01591 11.1503,4.48055 10.6662,-5.42879 z M 21.832628,392.99513 3.1695014,216.39642 53.400185,122.00937 180.66601,74.87339 319.9654,71.97683 l 5.74644,15.35562 -52.31249,48.77766 35.1333,47.45999 -8.46923,14.11536 -102.5089,-13.97958 -101.51087,38.4211 3.423507,111.58359 z M 205.01694,690.77122 82.253267,706.74095 -8.2112146,647.25931 23.562324,418.81913 116.38629,344.4601 l 168.6802,52.40068 -163.40735,7.23466 -66.342271,145.38831 56.290221,75.73007 164.06612,-53.35825 7.76345,16.93844 -29.64228,48.69806 51.51577,35.97413 -4.23461,19.05574 z m 125.46752,-1.02335 -2.59795,-8.61498 -8.761,-3.45559 -8.32683,4.30593 -1.62235,8.82496 6.30372,6.69866 9.48302,-0.47161 z m -23.22401,-119.96465 -7.2782,-6.48916 -9.91691,1.32114 -5.088,8.13654 3.57229,8.82496 9.54256,2.86806 8.32709,-5.24862 z" />
      <glyph
         glyph-name="А"
         unicode="А"
         id="glyph1714"
         d="m 171.80208,678.60967 -21.7382,-15.21842 -24.58278,8.84621 -8.91601,26.24946 13.46468,23.88634 25.70621,3.53631 18.59043,-19.47662 z M 19.467426,352.71359 -2.2707766,337.49517 l -24.5827774,8.84621 -8.916012,26.24946 13.464684,23.88635 25.7062074,3.53631 18.5904286,-19.47663 z M 64.20455,392.92238 165.08351,601.74029 188.21843,558.8115 143.29365,380.04374 Z m 145.1312,262.47888 38.73753,33.11648 -20.98283,-64.6998 z M 117.99478,80.14945 -23.965661,80.09045 44.52621,330.09236 138.1419,305.84658 Z m 307.71486,-0.008 -168.6425,2.0131 -60.7999,220.1849 -165.871153,43.36459 6.087016,38.16092 178.045177,-29.48797 60.87015,58.97586 -121.7403,234.16898 33.47858,26.01877 144.56661,-270.59526 z"
         horiz-adv-x="500,00" />
      <glyph
         glyph-name="Б"
         unicode="Б"
         id="glyph1459"
         d="m 392.62031,577.9156 6.37562,13.76294 13.51704,2.95996 10.47996,-10.07191 -0.9486,-12.51947 -11.03958,-9.2805 -13.31736,3.94682 z m 0.82868,170.09266 2.57868,11.8185 12.05489,7.12147 12.45346,-6.18808 3.47439,-11.58791 -8.121,-12.31451 -13.60117,-0.51799 z M 141.66654,447.96512 74.985571,358.81819 62.861703,237.66974 126.43124,108.84876 318.47212,79.94822 454.35993,293.67234 334.63718,441.10762 192.48889,404.13254 l -8.75673,-110.94208 68.22489,-61.53284 55.11834,48.35037 -46.37951,52.86413 12.55876,6.79913 53.91195,-60.76061 -71.0816,-67.24202 -87.13988,74.86048 2.02064,88.28978 z M 18.2772,100.81336 l 2.656328,610.59239 59.608719,-42.28767 237.315833,26.40677 66.68101,48.00221 12.12383,-16.00075 -62.63974,-59.43129 -3.94844,-32.71676 60.61909,-37.71601 -10.10317,-19.4295 -62.63968,33.14444 L 151.35737,588.39912 123.06849,519.82457 139.1407,467.96599 64.37715,365.10418 51.24305,226.8121 72.459712,182.23864 Z"
         horiz-adv-x="525" />
      <glyph
         glyph-name="В"
         unicode="В"
         id="glyph2246"
         d="m 72.61506,334.73078 -0.06533,-139.18731 48.71081,12.65547 0.19126,82.87111 -30.005804,12.74248 z m 48.10481,93.63811 -3.24297,258.17469 -45.402266,34.59214 1.621454,-251.14815 z M 63.967145,463.31609 124.50326,408.18482 370.3842,316.03713 381.41161,200.03136 174.95856,78.39733 15.32181,87.12641 -41.701217,60.64173 l -7.296673,14.05311 63.779274,36.4839 6.887414,60.09976 -59.316147,29.35341 6.485952,14.05304 93.030129,-36.31101 213.975328,60.09313 -179.501272,77.80984 -62.103415,98.93445 z M 59.274059,744.38666 299.73471,639.10586 130.44886,466.55909 l -0.54047,90.8044 99.45246,62.69827 z M -80.251369,47.69394 l -1.491581,12.20967 8.645955,8.77508 12.273011,-1.26727 6.658138,-10.3554 -3.970451,-11.64565 -11.609134,-4.16651 z m 10.369576,175.5532 9.860506,8.3667 12.709912,-2.46848 5.988471,-11.44486 -5.242407,-11.80301 -12.525652,-3.27328 -10.376805,7.72131 z"
         horiz-adv-x="475,00" />
      <glyph
         glyph-name="Г"
         unicode="Г"
         id="glyph2369"
         d="m 48.30379,65.59972 -37.520544,229.61818 18.745143,236.14654 -47.764801,75.5978 78.068039,87.008 190.788693,-21.42088 70.03872,19.34801 48.03198,56.76508 13.09964,-13.09963 -46.57649,-72.77574 2.91105,-59.67611 61.13161,-32.02132 -5.63791,-14.43961 -92.60936,33.3613 -147.30347,-3.31369 -43.09024,11.57762 22.47476,-23.95226 0.58555,-106.06031 -49.64003,-110.69334 z m 354.58282,490.64712 3.50171,12.13122 11.69781,4.83452 11.0851,-6.10267 2.12516,-12.44443 -8.43508,-9.41527 -12.64356,0.70377 z m -27.78449,196.94015 -0.12826,13.34986 10.39019,8.4236 13.08475,-2.84581 5.92629,-11.97227 -5.69485,-12.08337 -13.02761,-3.09543 z"
         horiz-adv-x="500" />
      <glyph
         glyph-name="Д"
         unicode="Д"
         id="glyph3190"
         d="M 590.48724,85.20049 571.68323,191.36354 505.32851,264.40388 294.03266,285.49062 187.44,216.38862 87.329098,257.97471 19.83691,193.1327 -53.064383,55.56351 -40.225831,50.45819 26.215074,132.8349 70.344236,118.34781 53.420139,4.43938 66.258573,-0.6659 106.03869,129.06196 184.23027,191.204 397.43391,234.88242 511.08193,203.69597 Z m -509.562106,193.79662 44.920486,38.85312 -1.77127,187.37348 82.10042,206.63468 180.60888,4.26673 121.63695,-142.55542 1.14698,-167.27623 -76.66744,-120.65441 -123.185,13.44702 -61.83138,172.59333 70.04353,128.2383 105.27238,-104.94771 -47.96401,-87.52076 -31.26539,49.60933 8.78649,-63.56125 44.89363,-11.89431 49.4626,124.36488 L 313.62594,628.75964 228.66712,473.36315 288.85627,303.00069 187.60405,233.06503 Z m -34.713305,-290.2085 8.142002,6.64511 9.361969,-3.27591 3.532077,-10.73008 -4.957506,-10.10425 -9.713957,-1.86986 -7.155664,7.77272 z m -109.809282,53.91058 7.998909,5.61144 8.93394,-3.35223 3.141525,-9.79167 -5.016572,-8.85771 -9.396994,-1.25372 -6.701363,7.29426 z"
         horiz-adv-x="625,00" />
      <glyph
         glyph-name="Е"
         unicode="Е"
         id="glyph3241"
         d="m 313.30479,233.40228 0.39315,-9.78165 -7.86317,-6.38867 -10.19834,1.81512 -4.85396,8.65207 4.14555,8.97384 10.02337,2.53814 z m 31.51514,-93.90171 -2.90791,-10.17063 -10.24378,-4.19696 -9.86586,4.9371 -2.05877,10.35343 7.29864,7.97342 11.16001,-0.41074 z M 34.69018,393.1268 7.82669,228.10823 55.1576,132.1672 174.02158,89.31686 l 140.71351,35.81798 -3.83764,16.62975 -46.05167,24.3051 26.96636,45.40879 -7.67529,12.79211 -120.0403,-51.2393 -77.96163,81.77006 18.912,84.59848 z m 184.28153,298.83582 -116.00759,5.52815 -74.502859,-89.43471 5.987379,-196.50108 99.49948,-70.55419 197.18989,41.60888 -196.02955,12.43598 -60.12305,131.75901 59.48344,115.12924 156.06407,-65.2399 7.03568,15.35056 -30.39901,52.61817 49.24972,42.21408 -3.83763,17.26933 z m 120.01705,9.0001 -2.35442,-7.80738 -7.93969,-3.13167 -7.54624,3.90227 -1.47031,7.99772 5.71281,6.07069 8.59405,-0.42765 z m -20.07464,-126.13785 -6.59592,-5.88083 -8.98727,1.19727 -4.61101,7.3738 3.2374,7.99769 8.64803,2.59921 7.54647,-4.7566 z"
         horiz-adv-x="425,00" />
      <glyph
         glyph-name="Ж"
         unicode="Ж"
         id="glyph3295"
         d="M -25.62438,726.00842 51.97642,575.90596 -4.1313601,109.5057 69.10382,90.82374 l 75.75802,142.39871 96.53823,396.70233 -69.21341,-463.81744 35.15344,-61.85652 83.4513,-2.85646 -5.27875,93.1257 139.86382,383.19504 -91.39118,-282.22027 112.20283,-220.88235 8.97723,5.88796 -9.76272,50.83338 17.54239,12.53709 32.31812,-38.29927 8.51754,6.26268 -71.26263,261.11551 67.24099,250.93087 -66.07098,102.12772 -195.48815,-503.12327 66.09058,476.7761 -76.76477,21.65258 -151.81293,-500.82804 35.02776,351.97534 z m 541.59936,-629.87797 -4.1064,-6.84275 -7.69613,-0.92209 -5.49056,5.69289 0.84951,8.02102 6.54992,4.30914 7.31808,-2.64758 z m -48.92989,-31.70002 -4.18849,-7.39947 -7.9119,-1.03938 -5.67743,6.10347 0.83218,8.65029 6.71516,4.6832 7.54152,-2.81038 z"
         horiz-adv-x="575,00" />
      <glyph
         glyph-name="З"
         unicode="З"
         id="glyph3349"
         d="M 245.59601,423.45326 279.61415,245.45943 217.92168,93.47288 49.510175,47.97512 l -3.453364,16.08527 73.783399,38.47353 -13.16806,42.34309 -77.871852,-4.14889 -4.907157,16.84094 148.773169,30.89277 18.43546,127.78013 z M -42.002414,612.42112 155.87953,732.18721 318.17523,588.1355 174.32798,332.89324 37.17493,354.47098 12.803498,473.74521 144.21768,494.51197 108.9955,439.09328 l 4.78978,-29.93482 123.81637,200.1264 -143.75681,59.20496 z m 59.3718,-566.2117 1.633585,10.98893 9.442963,5.54896 10.141605,-4.06948 3.203417,-10.6235 -6.14704,-9.17784 -10.868575,-0.82106 z m -22.7609339,94.50241 2.2639188,11.64984 10.3425851,5.45851 10.633217,-4.84322 2.916687,-11.49791 -6.996119,-9.49441 -11.6406294,-0.3413 z"
         horiz-adv-x="425,00" />
      <glyph
         glyph-name="И"
         unicode="И"
         id="glyph3403"
         d="m 452.1671,73.49999 -59.94942,233.60964 26.0386,284.63549 -42.60266,76.63 -83.49364,-97.76891 -152.93541,-399.79343 -9.02233,3.60858 8.24941,23.13548 13.43067,322.31786 -9.79249,143.31164 -61.721412,9.02307 L 2.4414685,606.17789 -49.639421,490.58554 -38.862874,483.84563 -3.3167303,548.31217 30.06939,535.69913 12.769366,464.2035 25.349213,459.30706 75.206286,557.42008 86.158614,549.18422 71.453178,520.62971 59.696252,211.1344 102.52408,80.41997 179.74552,80.19484 361.41383,517.77072 336.2656,297.0301 Z M 3.7572337,443.63851 l 1.417519,9.1046 7.7613383,4.52958 8.260853,-3.45629 2.5397,-8.83947 -5.093893,-7.56637 -8.8917019,-0.59567 z m -67.3022837,29.68035 3.297943,8.98901 8.84656,2.93592 7.733552,-5.32794 0.796998,-9.57981 -6.739663,-6.61787 -9.201269,1.32743 z"
         horiz-adv-x="525" />
      <glyph
         glyph-name="Й"
         unicode="Й"
         id="glyph3470"
         d="m 341.0166,817.70871 -89.35035,-30.77623 -110.19873,57.58132 -4.24096,-7.63709 5.61604,-27.37807 -21.58658,-11.75857 -4.73854,-7.89751 51.24621,-34.39814 118.98944,-3.33447 z m 116.86433,-751.99386 -67.39225,143.73556 65.70601,361.4076 -56.56424,76.19381 -109.10841,-70.73546 -148.456,-388.04309 -14.33613,5.88727 19.30332,41.76245 43.80448,330.46527 c 0,0 -77.74247,104.94832 -75.75687,104.94832 1.98551,0 -109.6734794,-59.6951 -109.6734794,-59.6951 L -43.143419,482.1125 -31.786689,475.27139 5.6731406,540.70577 40.856681,527.90335 22.62527,455.33437 35.882391,450.36444 94.757591,567.17575 105.18179,555.22763 84.468431,512.6077 56.834658,252.12905 103.81397,74.21327 198.9694,77.0298 365.31828,523.65468 351.17649,165.7839 Z m -445.745749,369.24218 2.256879,9.82812 9.11533,4.36878 9.1097,-4.3804 2.244281,-9.83099 -6.311101,-7.87862 -10.11412,0.006 z m -69.93284,29.62956 3.47547,9.12395 9.32283,2.98002 8.1499,-5.40794 0.83993,-9.72363 -7.1025,-6.71721 -9.69664,1.34736 z m 191.927339,376.00916 -5.35207,-1.08098 -4.23305,3.27267 0.0736,5.16197 4.32476,3.16421 5.31934,-1.2163 2.30835,-4.68084 z m -20.20142,-46.6532 -5.35208,-1.081 -4.23303,3.27267 0.0736,5.16193 4.32475,3.16426 5.31935,-1.2163 2.30835,-4.6809 z"
         horiz-adv-x="550,00" />
      <glyph
         glyph-name="К"
         unicode="К"
         id="glyph3524"
         d="m 465.70694,8.17422 -277.50821,304.58295 9.91466,71.01273 -16.73099,144.75672 180.32264,108.56758 66.92386,63.5018 7.43599,-10.24223 -49.57325,-73.74402 25.40628,-35.84777 67.54351,26.28839 6.81633,-14.33914 L 279.13211,467.3842 259.00752,325.58074 Z M 1.2216279,628.29212 71.863474,706.13302 143.53126,688.01418 180.71119,378.01624 150.96726,154.053 l 40.8979,-103.7879 -13.01679,-6.91471 -48.63683,84.01122 -35.029207,5.75947 -39.435301,-86.90814 -13.14508,6.75961 45.56963,178.16165 2.056511,439.50446 z m 486.3146521,-21.57616 3.8196,8.26507 8.26416,1.87292 6.48577,-5.9295 -0.17658,-9.26696 -6.70597,-5.62617 -8.18559,2.25122 z m -53.29116,97.30095 1.99214,9.55949 8.04624,4.24936 8.0412,-4.26066 1.98105,-9.56229 -5.57089,-7.66333 -8.9278,0.005 z m -228.33702,-677.611 -7.01081,-8.32018 -10.63016,0.50891 -6.24479,8.9551 2.84301,10.65763 9.79003,4.33483 9.36489,-5.25222 z m -153.992323,1.17265 -7.0108,-8.32018 -10.630161,0.50891 -6.244771,8.9551 2.843,10.65769 9.790018,4.33478 9.364896,-5.25223 z"
         horiz-adv-x="500,00" />
      <glyph
         glyph-name="Л"
         unicode="Л"
         id="glyph3578"
         d="m 416.70065,74.20983 -25.16096,166.06245 34.90967,274.39008 -58.3349,246.14613 -239.57885,7.0112 L 34.936742,662.47346 117.67242,356.75144 92.888977,169.15102 l -32.481182,45.97422 -13.501071,85.96292 -7.47232,-3.20255 3.893521,-65.68061 -33.048792,-20.41145 -57.537562,51.89823 -5.33742,-6.04908 85.720721,-102.75463 18.690611,-79.04102 69.796957,-0.70247 48.73639,64.65074 17.09491,322.65349 -52.751,196.59685 125.88289,48.85371 97.24419,-215.17336 -15.75766,-299.3478 z m -376.521396,228.87981 -4.64352,2.40589 -0.90085,4.92421 3.5201,3.73447 5.29041,-0.2673 3.07688,-4.06786 -1.45358,-4.8052 z m -94.396373,-41.38815 -5.51481,-0.0555 -3.48441,4.03212 1.16981,5.08343 4.94315,2.30681 4.99422,-2.20686 1.28449,-5.05873 z"
         horiz-adv-x="525,00" />
      <glyph
         glyph-name="М"
         unicode="М"
         id="glyph3632"
         d="m 11.52676,72.52267 28.00693,165.05463 -54.69194,238.71237 27.10014,184.51497 58.36966,44.46145 69.83514,-51.13062 37.87781,-106.77973 109.08861,169.02571 80.36117,-67.82224 -16.91458,-374.82708 50.68698,-162.58209 -14.59241,-4.44613 -38.56576,67.24789 -33.97536,-6.78457 3.12701,-74.47284 -14.07132,-3.89041 -26.05792,124.49201 -5.92008,295.99899 45.88127,61.47256 -10.1304,7.94412 L 195.30746,447.11858 105.64477,553.81919 80.39561,614.69091 65.05518,610.56549 82.00194,205.75873 Z m 376.18522,20.85888 3.43335,8.60378 8.46833,2.51077 7.12648,-5.47289 0.41802,-9.33534 -6.60493,-6.16811 -8.6545,1.64387 z m -84.24543,-17.6313 4.11186,8.61083 8.89655,1.9513 6.98205,-6.17758 -0.19009,-9.65469 -7.2191,-5.86155 -8.81194,2.34542 z"
         horiz-adv-x="500" />
      <glyph
         glyph-name="Н"
         unicode="Н"
         id="glyph3686"
         d="m 43.179561,38.83772 -28.452389,172.63644 39.445331,179.51429 42.678523,-47.45786 294.223184,8.94129 29.09897,65.34046 31.03891,-332.20455 -15.61971,-1.3815 -44.12428,31.85562 -39.7805,-34.28731 h -15.3177 l 8.79246,166.1326 -187.52672,59.15025 -90.530293,-114.17383 z m 349.187919,721.49614 -23.6326,-311.37127 -143.68926,-34.70655 -103.15565,51.60344 13.26207,204.22081 -19.60495,0.0762 -39.28442,-33.43427 -39.226196,34.19828 -18.106107,-0.34398 12.215154,-232.47147 74.314909,-76.17652 270.68995,8.75423 63.09996,124.50407 z m -278.75175,-73.95813 2.01156,10.76218 9.18994,5.04255 9.44808,-4.47415 2.59161,-10.62182 -6.21633,-8.77098 -10.34331,-0.31528 z m 319.94376,-616.27471 5.40682,8.20494 9.42119,0.63357 6.34115,-7.4148 -1.51381,-9.87974 -8.22888,-4.905 -8.74748,3.76331 z M 333.439,67.30831 l 5.7035,7.82641 9.32703,0.15152 5.92714,-7.63729 -1.93595,-9.67523 -8.34129,-4.4275 -8.46549,4.1542 z m -317.445371,619.91853 2.011572,10.76219 9.189928,5.04254 9.44809,-4.47415 2.59161,-10.62182 -6.216355,-8.77097 -10.343302,-0.31528 z"
         horiz-adv-x="525" />
      <glyph
         glyph-name="О"
         unicode="О"
         id="glyph3740"
         d="m 258.14334,712.59233 43.75562,5.28984 -32.7542,-26.19697 z M 220.63854,697.47873 80.620594,630.97878 1.1104041,278.83114 121.1258,81.34629 l 218.02794,-6.04543 106.01591,321.16662 -98.0149,264.23483 -5.00063,92.69696 -13.7707,-1.11624 -3.53599,-97.96372 -31.47029,-13.89297 -56.9294,84.0707 -12.72955,-6.76846 78.14532,-135.72432 51.29202,-254.80953 -93.01384,-180.18176 -160.01564,106.42422 8.9982,294.92039 130.51673,117.38252 z m 113.33983,81.22032 7.96992,-3.57905 2.18287,-8.48939 -5.24796,-7.00697 -8.727,-0.24811 -5.63434,6.69749 1.70101,8.59978 z m -121.8585,-42.49185 5.39126,7.07374 8.86833,0.17744 5.66731,-6.85269 -1.80123,-8.72242 -7.91348,-4.02401 -8.06668,3.70452 z"
         horiz-adv-x="525,00" />
      <glyph
         glyph-name="П"
         unicode="П"
         id="glyph3803"
         d="M 54.25833,50.81884 -0.11646041,275.33407 41.98016,531.42178 10.40771,629.64719 133.18944,708.5783 322.62419,684.02197 398.04729,434.95042 380.50705,185.8787 407.03667,63.53551 h -14.25145 l -27.6259,79.80806 -39.7067,0.43847 -19.18463,-80.46586 -13.26483,0.21924 13.15521,252.57963 -32.81841,250.24609 17.98412,61.39404 -34.10778,-29.76671 -127.12905,0.6201 -53.95234,13.64314 45.89048,-35.96824 -47.7509,-205.88706 z m 349.47867,8.80748 4.37945,-5.58194 -1.64736,-6.89349 -6.4336,-3.01411 -6.37529,3.13494 -1.51622,6.9233 4.48466,5.49835 z m -100.52139,-0.71501 4.37943,-5.58193 -1.6473,-6.89349 -6.43365,-3.01411 -6.3753,3.13493 -1.51617,6.92331 4.48461,5.49835 z"
         horiz-adv-x="500" />
      <glyph
         glyph-name="Р"
         unicode="Р"
         id="glyph3864"
         d="m 28.65806,294.57316 -4.876941,-224.2087 13.818102,0.79785 13.818059,106.91811 32.267296,1.59573 33.588894,-102.74328 13.14898,1.80938 -37.3903,172.74443 30.48129,100.93394 z m -26.3806899,7.97902 25.6549449,78.24093 -43.979974,173.39883 139.270049,177.62824 196.05755,-63.37171 32.57531,-208.63315 -100.32942,-73.2187 -117.19043,30.99339 -56.925575,92.19504 128.664935,97.39241 66.46783,-96.7951 -53.11709,-21.04365 -35.5012,21.66487 34.30859,-34.59443 73.15229,28.75081 L 207.30131,628.70787 57.023221,512.16389 140.63107,372.33464 Z M 22.1325,59.30712 l 4.519041,6.63971 7.917827,0.54368 5.354332,-5.96166 -1.241117,-7.97781 -6.901895,-3.98647 -7.3655,3.00675 z m 94.44996,6.72668 4.06243,6.5752 7.91903,1.06809 5.81241,-5.24324 -0.6711,-7.60636 -6.64926,-4.24167 -7.62034,2.31703 z"
         horiz-adv-x="450,00" />
      <glyph
         glyph-name="С"
         unicode="С"
         id="glyph3918"
         d="m 314.15463,535.28148 51.46376,99.86786 -99.71106,91.10762 L 60.05212,682.45529 -13.927051,382.8513 74.52637,79.74314 l 202.6387,1.7522 129.81298,171.32437 -8.09246,6.81395 -71.5805,-47.59007 -30.25009,22.75828 23.19429,79.91382 -9.93325,6.24355 -106.89677,-154.86258 -99.3503,106.31863 0.95339,323.72006 117.13155,78.67025 85.85859,-26.0169 z m 88.71205,-265.5861 6.10705,4.8968 7.74528,-1.58926 3.55115,-6.87865 -3.31708,-6.98824 -7.68746,-1.83557 -6.26901,4.69934 z m -90.12623,61.89082 5.68881,5.75826 8.17718,-0.73428 4.50795,-6.67388 -2.55585,-7.58791 -7.69506,-2.78812 -7.03974,4.11124 z"
         horiz-adv-x="450,00" />
      <glyph
         glyph-name="Т"
         unicode="Т"
         id="glyph3972"
         d="m 165.1142,615.09615 51.27035,3.58725 33.56254,-234.51169 -20.97535,-261.0551 33.59925,-65.63372 -13.58397,-2.74659 -51.35345,77.65427 -30.04466,-2.79361 -18.12772,-80.00311 -14.87752,0.41081 z M -48.664928,520.09501 -6.782295,660.50306 53.295128,712.0799 365.42132,696.01498 440.00008,585.25155 411.68772,496.47169 404.78226,592.86127 322.60751,637.67393 43.282246,623.72281 33.27413,511.36521 l -9.162776,0.21151 -26.26562,24.69541 -36.823346,-18.39831 z M 248.49606,43.2732 l 4.16702,7.12292 9.6147,1.85533 7.82236,-4.80932 0.13945,-7.85249 -7.64827,-4.98257 -9.67687,1.63936 z m -117.27786,-4.14721 6.39431,5.71172 9.61332,-0.40675 5.5932,-6.21873 -2.63858,-7.34805 -8.88356,-2.94414 -8.43902,3.67677 z m -184.646856,473.85964 5.262888,2.58102 5.991146,-1.45483 2.208041,-4.39518 -3.23787,-4.02585 -6.245498,-0.62498 -4.550201,3.24648 z m 75.400528,-9.93719 3.900419,3.75032 6.068327,-0.12067 3.666657,-3.90063 -1.496069,-4.74343 -5.532246,-2.01437 -5.402513,2.23157 z"
         horiz-adv-x="475,00" />
      <glyph
         glyph-name="У"
         unicode="У"
         id="glyph4026"
         d="M 113.92723,352.61681 206.29254,520.87355 176.50535,617.69011 1.494068,725.14763 -7.5172442,716.36412 6.31887,671.88245 l -52.536649,-11 -6.379027,-10.95921 122.722099,-58.24635 69.646767,-97.70818 z M 335.15648,720.66102 -33.664962,67.89148 69.665312,72.91671 405.1904,711.09921 Z m -397.613147,-50.11773 7.548983,-2.20467 2.949147,-7.16263 -3.871589,-6.72696 -7.776843,-1.22573 -5.826052,5.19846 0.511884,7.70811 z m 50.241512,67.68205 6.8742031,-3.96158 1.0776606,-7.65852 -5.5303314,-5.58839 -7.9739093,0.68983 -4.41295,6.44868 2.471013,7.3515 z"
         horiz-adv-x="475,00" />
      <glyph
         glyph-name="Ф"
         unicode="Ф"
         id="glyph4080"
         d="m 177.72524,317.36837 12.83425,-144.36715 -31.92323,-104.37514 13.50599,-1.7323 51.56838,110.00518 42.56432,1.29929 38.47161,-107.83982 14.32459,0.86616 -51.15912,277.17873 z m -56.43325,-2.72076 5.64302,35.93117 -100.305214,96.47973 55.20191,226.53901 206.871794,52.46169 189.98398,-140.13136 -44.45141,-191.75489 -145.8226,-40.22554 -78.85721,127.0041 28.50312,123.62772 33.00816,-31.38517 5.87953,-120.21143 100.24735,42.67889 L 220.04597,638.02798 109.93671,525.49215 259.54762,364.053 Z m 31.90716,-258.44192 5.73636,6.08627 8.20144,-0.8197 4.49064,-7.10846 -2.60171,-8.04436 -7.73494,-2.92271 -7.04355,4.39977 z m 150.65016,1.92199 4.51834,6.54636 7.79169,0.44686 5.19766,-5.98903 -1.31028,-7.91518 -6.83151,-3.88105 -7.20855,3.07564 z"
         horiz-adv-x="550,00" />
      <glyph
         glyph-name="Х"
         unicode="Х"
         id="glyph4134"
         d="m 257.46968,466.82641 83.91409,136.86104 -4.54507,137.24528 15.56716,3.27307 16.2458,-145.57066 35.17031,-25.99778 69.04573,78.31624 11.90575,-11.38997 L 296.57047,368.10378 Z M 57.287861,34.11123 59.723669,205.79021 167.41603,362.27138 215.27701,271.54758 87.913231,145.35867 Z M -17.245631,616.87477 88.1829,552.52156 266.62962,196.64795 469.82374,30.57035 348.96404,188.10919 210.25837,553.36993 85.045007,736.70777 73.238658,726.70658 124.66803,625.44889 93.712407,592.52766 -10.873402,630.80687 Z m 513.385361,31.78519 -9.72639,-1.71786 -7.31329,6.78269 0.60672,10.17577 8.07004,5.9063 9.45634,-2.81083 3.72188,-9.41126 z m -147.72062,101.70018 -9.72633,-1.71786 -7.31336,6.78275 0.60677,10.17576 8.07,5.90624 9.45639,-2.81081 3.72183,-9.41122 z m -268.152398,-10.67441 -7.496715,-6.10152 -9.249489,2.22461 -4.037246,8.87554 4.215205,8.84302 9.293457,2.15151 7.373532,-6.16011 z m -97.4053,-109.78185 -3.850249,-8.91682 -9.123597,-2.49292 -7.526634,5.8082 -0.262167,9.73563 7.199936,6.33193 9.240224,-1.83983 z"
         horiz-adv-x="550,00" />
      <glyph
         glyph-name="Ц"
         unicode="Ц"
         id="glyph4188"
         d="m 466.87004,704.21687 -5.78431,-6.99829 -8.80899,0.39282 -5.20026,7.48819 2.32433,8.94471 8.09866,3.66576 7.77454,-4.37361 z m -127.73113,-7.99202 -3.3208,-8.26653 -8.21573,-2.42359 -6.92417,5.24432 -0.41833,8.96327 6.40229,5.93256 8.40202,-1.5654 z M 36.880241,467.18553 l -3.579814,-5.65823 -6.438265,-0.58439 -4.448644,4.92961 0.890996,6.73141 5.559626,3.46439 6.041793,-2.41144 z m -83.408448,69.76201 -5.405957,-4.13707 -6.445993,1.86563 -2.632101,6.46348 3.163828,6.19415 6.577338,1.26052 5.037955,-4.62224 z M 326.35556,678.9817 360.72336,514.89513 354.26272,288.97726 417.84364,35.16759 365.45362,-95.95064 464.18001,61.73594 436.91528,163.2245 l 27.56803,527.52226 -15.88591,0.61908 -12.85494,-97.0912 -62.27328,-2.88906 -32.35514,93.02767 z m -377.043101,-125.33011 81.658144,110.6741 71.878787,29.86511 65.57636,-79.55869 4.66771,-412.5461 174.69598,41.39505 14.63604,-66.11614 -218.18722,-94.30284 -68.426931,121.70156 4.113669,341.77837 17.604175,46.20511 -9.547203,3.99133 -49.03328,-119.66408 -11.989374,4.53321 19.237686,97.57499 -35.752135,19.19143 -52.8328,-52.71377 z"
         horiz-adv-x="575" />
      <glyph
         glyph-name="Ч"
         unicode="Ч"
         id="glyph4242"
         d="m 391.91407,53.91465 6.1451,-5.9067 -0.78668,-8.48723 -7.12608,-4.67666 -8.09935,2.65552 -2.97372,7.98808 4.39126,7.30535 z m -162.49606,2.29534 4.33714,-8.13089 -3.6528,-8.46039 -8.89212,-2.41915 -7.4355,5.44387 -0.37983,9.20746 6.96189,6.03772 z m -119.37454,650.71369 -6.93246,0.11433 -4.23305,5.49125 1.654,6.73321 6.2955,2.90497 6.19635,-3.11076 1.43128,-6.7841 z m -99.27567,1.25917 -6.8855204,-0.22114 -4.46579002,5.24549 1.31668,6.76203 6.10771002,3.18663 6.2995304,-2.78834 1.74764,-6.66372 z M 343.6685,690.268 248.82698,382.00263 255.9402,175.44394 219.96776,63.73011 l 15.41728,-2.6842 50.53759,95.14289 55.758,-4.23443 37.28514,-94.45179 14.08746,2.03345 -66.44846,449.614 z M 1.0538696,702.85026 -6.0591704,527.74719 85.22562,424.99202 l 154.3486,-28.571 24.39963,65.5303 -171.6351,68.94142 20.15372,170.90899 -12.92502,0.30579 -42.79425,-27.56761 -42.79425,28.31011 z"
         horiz-adv-x="500" />
      <glyph
         glyph-name="Ш"
         unicode="Ш"
         id="glyph4296"
         d="m 386.43003,727.69372 -7.67793,1.59348 -3.49162,6.76617 3.32396,6.84382 7.63652,1.7679 6.19863,-4.63922 0.0931,-7.553 z m -134.64178,9.68993 -7.84322,0.0104 -4.88232,5.90295 1.75506,7.35117 7.07085,3.26387 7.06216,-3.2812 1.73548,-7.35555 z m -91.88434,2.02171 -7.84322,0.0104 -4.88234,5.90298 1.75506,7.35118 7.07086,3.26386 7.06215,-3.28124 1.73551,-7.3555 z M 18.122983,722.4797 l -6.724998,-2.77232 -6.4469217,3.32764 -1.3141533,6.92192 4.8081842,5.30376 7.3098548,-0.30801 4.307068,-5.68805 z m 223.672387,9.76752 13.75706,-176.34027 -61.56078,-314.27903 73.21791,-151.50255 177.49432,-5.01479 71.65923,277.07609 -30.86864,338.50945 -23.15141,-392.4202 -103.20818,-151.39635 -78.23714,95.87391 107.58124,470.50994 -14.05623,1.88058 -46.30288,-126.31417 -38.015,6.64185 -34.814,127.5545 z M 11.441355,714.48723 56.641765,596.6358 50.833696,223.3426 141.80712,76.89536 242.62307,113.33806 141.53036,310.78335 162.47688,734.54707 H 149.24749 L 128.30096,630.48675 78.690749,620.45681 22.891921,719.39137 Z"
         horiz-adv-x="600,00" />
      <glyph
         glyph-name="Щ"
         unicode="Щ"
         id="glyph4350"
         d="m 354.37058,77.92111 81.00069,-26.31079 22.91738,-74.06474 11.68496,74.50919 -45.17786,53.60913 -8.70348,-29.02835 z m -188.56163,637.16505 -7.89746,1.70439 -3.5914,7.23711 3.41897,7.32017 7.85483,1.89097 6.37586,-4.96213 0.0958,-8.07872 z m -122.392048,7.69037 -8.06746,0.0107 -5.02188,6.31381 1.80526,7.86285 7.27298,3.49103 7.26403,-3.50958 1.78513,-7.86752 z m 198.930458,-6.78237 8.06462,-0.21389 5.19542,6.1718 -1.58599,7.90999 -7.17315,3.69183 -7.35881,-3.30634 -2.00305,-7.81485 z m 127.9688,-18.6877 6.83214,-3.15641 6.72759,3.3736 1.55701,7.36321 -4.78611,5.80824 -7.52504,-0.12016 -4.59762,-5.95847 z M 32.901332,718.23082 56.24407,494.96842 21.80456,288.30464 75.257431,94.02004 403.87211,86.24181 l 69.91482,243.26072 -31.75104,362.0709 -20.02036,-366.63298 -71.44791,-153.49758 -196.74024,8.69241 -53.35353,80.6049 67.44262,449.60731 -14.45809,2.0115 -39.11279,-112.94873 -26.112834,2.00458 -41.450164,117.64918 z m 344.382508,-29.996 -91.95723,-168.96764 -1.21664,-213.88057 46.39629,-118.14919 -91.49547,3.79737 -44.51648,200.49144 45.06307,320.35282 13.60236,-0.37809 3.9628,-84.24945 37.76998,-12.39142 70.76384,78.94556 z"
         horiz-adv-x="550,00" />
      <glyph
         glyph-name="Ъ"
         unicode="Ъ"
         id="glyph1141"
         d="m -63.058431,742.68475 -7.8614,-2.9322 -7.19402,4.31812 -1.10935,8.31678 5.81065,6.05275 8.3551,-0.76911 4.60803,-7.01185 z m -11.43929,-132.52672 -5.21971,-5.81673 -7.80214,0.45424 -4.50938,6.38316 2.17902,7.50544 7.22655,2.97593 6.83237,-3.79447 z m 92.53016,-240.62954 50.50705,218.4223 -16.91971,27.34624 -121.16235,-8.33917 -2.01148,12.38723 87.16342,28.86664 -0.78988,40.5633 -73.02207,49.61427 3.6992,12.52133 L 121.86636,685.28994 165.76421,563.42749 141.84793,478.37772 65.182379,386.60071 Z M 146.09554,464.16984 71.433679,372.53964 6.6390494,351.47119 -12.783801,187.20105 96.852969,65.03181 l 160.859741,36.25845 82.49114,140.98397 -54.9053,156.00919 -133.48845,12.69854 -31.54111,-165.83509 54.09216,-83.49021 68.65737,92.71926 -19.10848,53.07095 -39.80481,-24.89755 46.56535,44.34273 26.53968,-79.02209 -88.89428,-106.37506 -64.84592,95.80519 z"
         horiz-adv-x="500" />
      <glyph
         glyph-name="Ы"
         unicode="Ы"
         id="glyph543"
         d="m 512.05375,66.15986 4.12692,-4.2792 -0.77245,-5.89436 -5.09027,-3.07143 -5.57489,2.06481 -1.86159,5.6463 3.25358,4.97552 z m -129.44014,-9.51765 2.56966,-5.13346 -2.41131,-5.2101 -5.57652,-1.36292 -4.54249,3.51041 -0.0878,5.73967 4.43291,3.6479 z m 43.06741,624.83373 -14.7629,-189.55385 -4.51708,-254.2104 -32.11538,-176.78609 11.42122,-1.90364 33.31184,89.46567 53.29871,-1.90348 30.45655,-78.99681 11.42109,0.95228 z m -266.66773,-8.75553 -7.43435,3.12179 -2.1945,7.75887 4.69787,6.55327 8.05263,0.41296 5.34361,-6.03831 -1.3893,-7.94262 z m -102.07658,15.46602 -8.13047,0.24899 -4.87487,6.51165 2.05162,7.87132 7.43318,3.30361 7.21742,-3.75169 1.56678,-7.98197 z M 137.10678,381.92961 265.04575,405.49067 374.92304,321.78734 336.68142,150.48853 212.38257,66.17012 78.884332,112.81227 28.098255,307.76016 45.79881,681.91223 l 15.17337,-1.85298 13.36943,-97.58239 31.61991,-4.7297 41.00419,91.32617 13.98747,-4.88968 -38.49775,-162.03229 8.47911,-315.23452 124.95515,-34.13584 58.09804,143.01861 -102.31947,58.11796 -73.24037,4.97454 z"
         horiz-adv-x="650" />
      <glyph
         glyph-name="Ь"
         unicode="Ь"
         id="glyph1222"
         d="m 165.95752,744.74571 -7.28503,0.11593 -4.45546,6.02315 1.72918,7.39487 6.6117,3.19815 6.51544,-3.40689 1.51302,-7.44644 z m -144.552801,0.29509 -7.28093,-0.17028 -4.66697,5.84151 1.46138,7.45438 6.48926,3.45399 6.63059,-3.14732 1.77896,-7.37865 z M 37.20742,390.05519 12.656679,737.96466 26.201909,739.144 51.285199,633.89534 H 102.07981 L 153.75282,739.144 h 14.67399 L 130.04867,601.15956 142.46511,461.99577 95.903399,408.92483 Z M 106.39167,400.66937 25.073149,374.72359 44.04748,165.97789 183.19247,62.19474 370.22502,109.36875 414.49843,314.57653 307.88084,446.66419 172.34998,430.1532 l -4.51771,-172.18568 69.57252,-63.68512 87.6433,40.09802 -29.81679,100.24509 -68.66897,-47.17415 76.80081,71.94059 39.75573,-135.62572 -111.13529,-49.53288 -80.41497,72.53027 3.84006,210.80956 z"
         horiz-adv-x="475,00" />
      <glyph
         glyph-name="Э"
         unicode="Э"
         id="glyph1288"
         d="m 10.293519,364.34537 -4.8283996,-3.14732 -5.47141995,1.81216 -1.99434005,5.408 2.98451005,4.93101 5.71595995,0.74059 4.1431896,-4.00683 z m -1.6448796,-75.66409 -3.24795,-4.05295 H 0.20701945 l -3.22847005,4.06833 1.16785,5.06075 4.68475,2.24215 4.67395,-2.26476 z m -31.4664804,218.12318 -5.78762,-8.2117 -10.02861,-0.59501 -6.71785,7.46974 1.65159,9.90992 8.77735,4.88714 9.29358,-3.81558 z m 1.70909,209.39604 -10.29306,-2.53241 -8.3975,6.46826 -0.17848,10.59852 8.17497,6.74769 10.37247,-2.18427 4.75932,-9.47181 z M 184.80044,379.89751 140.53819,359.56042 13.732819,369.72896 13.134679,361.35494 34.667669,332.04611 9.5458494,296.1578 11.340259,287.78379 199.75391,306.32635 Z M -10.790861,725.02303 254.78265,625.73211 337.32577,441.50559 319.38162,238.13833 169.84698,105.35179 -40.697791,47.93049 l 153.123471,75.36523 105.27238,159.10493 -33.49575,189.01194 -87.328231,72.2369 -113.64633,-39.47737 -4.78511,16.74802 87.47336,56.26022 1.13617,75.82597 -86.21697,55.26912 z"
         horiz-adv-x="400" />
      <glyph
         glyph-name="Ю"
         unicode="Ю"
         id="glyph1354"
         d="m -11.55488,594.29051 -11.41576,-3.99429 -10.24068,6.43438 -1.35418,12.01861 8.5521,8.552 12.01842,-1.35403 6.4346596,-10.24087 z m -7.28441,-489.33572 10.4971996,-1.34119 5.49655,-9.04305 -3.64309,-9.93534 -10.0394296,-3.3466 -8.87585,5.76287 -1.02857,10.5322 z M 67.48764,413.79701 32.34097,462.275 -8.8654204,589.52988 -24.62085,583.47019 20.93136,340.20812 -19.773,108.38476 -5.2295604,107.17273 49.30834,230.79198 l 43.63033,30.2989 z m 8.52296,19.22117 63.67261,19.33156 85.26789,189.77105 106.68739,60.91893 L 448.86224,660.21924 528.59827,452.92277 469.07685,158.20257 321.15218,39.94677 140.899,109.6055 l 2.62556,116.78543 146.04464,90.82389 33.26329,183.75627 63.77498,62.51435 16.65396,-112.56119 -53.05736,-224.91627 -17.09245,152.75561 36.62665,48.91451 -51.0254,-43.22265 L 341.16424,150.4989 427.28019,472.80628 397.57968,598.52895 291.06036,495.92142 268.78246,330.23475 118.25607,240.22254 Z"
         horiz-adv-x="600" />
      <glyph
         glyph-name="Я"
         unicode="Я"
         id="glyph1420"
         d="m 12.977087,66.77887 7.88067,-12.26798 14.50506,-1.48805 10.20684,10.41324 -1.7773,14.47219 -12.42312,7.63397 -13.7141,-4.95292 z m 286.933003,-32.0753 12.41432,-7.5716 13.66017,4.98478 4.61967,13.78788 -7.89961,12.20871 -14.47025,1.43542 -10.14455,-10.41811 z M 182.60976,322.26387 145.98552,226.23439 34.352107,92.83652 54.248367,81.13296 195.46155,225.24221 l 77.24443,5.267 28.67411,-162.68154 25.16296,-1.75566 -25.74818,251.62996 z m 130.75083,6.53919 -55.00736,80.75576 -198.536983,68.94428 22.9814,134.70014 155.728143,4.08903 V 500.25495 l -95.97035,4.68178 35.11111,58.51822 25.74813,-31.59978 -24.57777,14.04444 -11.70369,-26.91844 57.34813,-2.34088 -2.34071,78.41487 L 101.5236,602.66969 86.734737,485.52532 283.2839,413.77967 318.80877,346.93786 365.91976,497.74819 313.36059,679.91412 101.5236,697.46989 -10.831943,581.60302 l -6.59412,-164.68358 96.34146,-75.65819 z"
         horiz-adv-x="500,00" />
      <glyph
         glyph-name="а"
         unicode="а"
         id="glyph1244"
         d="m 341.82454,589.82598 -11.84166,-8.65967 -13.26685,5.25416 -4.70189,15.2115 7.40372,13.71424 13.93418,1.88994 9.97193,-11.35758 z m -119.50151,-47.87052 -11.84164,-8.65967 -13.2669,5.25417 -4.70188,15.21146 7.40374,13.71425 13.93419,1.88991 9.97191,-11.35755 z M 380.34591,272.35061 418.88619,79.24256 361.7732,235.41109 Z m -163.93406,251.16016 66.1444,-135.34378 -20.50609,-146.97238 -95.42089,-72.68749 -58.36757,103.66311 44.55292,116.82636 105.71354,-66.28025 8.61423,57.69658 -68.81382,79.53165 L 68.559678,443.93454 14.030976,232.689 94.647117,83.60328 274.2496,86.36041 l 115.02901,235.30911 -50.1212,252.02082 -14.32027,-1.14117 -30.68675,-57.01811 -64.44171,17.10541 z"
         horiz-adv-x="475,00" />
      <glyph
         glyph-name="б"
         unicode="б"
         id="glyph1795"
         d="m 322.01669,530.75003 -15.53968,-3.16016 -12.21101,9.93107 0.31278,15.54398 12.60106,9.45197 15.40046,-3.75756 6.60302,-14.13759 z m -6.07348,108.84882 -12.15669,-7.56807 -13.6198,4.59185 -4.82696,13.29397 7.60068,11.98551 14.30487,1.65169 10.23718,-9.92588 z M 275.47155,647.77627 62.860565,540.80125 -4.8705899,332.85248 66.660142,139.84059 245.48663,69.91924 414.4952,182.81293 l -80.77005,190.38159 -166.86383,45.98991 -5.83864,-32.59352 118.73896,-79.54943 -1.31492,-87.44691 -109.54327,-4.10689 -38.13636,129.16738 30.877,132.36979 121.57065,63.11631 1.6723,15.7737 -46.27231,20.62851 42.36842,56.62932 z"
         horiz-adv-x="450" />
      <glyph
         glyph-name="в"
         unicode="в"
         id="glyph2315"
         d="m -26.5,145 -5.487717,-2.89536 -5.685222,2.48524 -1.601638,5.99441 3.688012,4.98966 6.200513,0.2276 4.043902,-4.70585 z m 33.0000001,77.25 -5.8061141,-1.05652 -4.4460735,3.88067 0.2619513,5.89564 4.7727213,3.47107 5.6895348,-1.56728 2.3220127,-5.42545 z M 97.68677,363.42229 150.65313,500.89676 90.54524,553.86312 36.14212,493.8223 33.24606,348.1083 15.85431,343.10855 9.2716569,485.33885 70.90603,586.00001 138.75058,567.55106 207.78538,500.30164 167.3167,362.82716 151.24826,377.11022 Z M -23.884776,140.92284 128.40371,72.00002 261.09831,125.82069 247.65893,272.96289 144.10673,366.99305 -9.4361961,331.2854 21.537122,244.04294 91.14849,284.26394 48.886309,304.80222 164.48159,280.52627 193.18493,178.78277 153.06195,155.02372 13.697983,226.47209 8.6481576,217.21408 26.977487,170.66874 -21.698219,151.34099 Z"
         horiz-adv-x="350" />
      <glyph
         glyph-name="г"
         unicode="г"
         id="glyph3146"
         d="M 409.46373,496.61869 205.15066,533.00121 61.438984,509.35258 14.689552,416.57716 24.212677,136.43183 10.360794,75.49113 l 16.448915,-4.54788 42.420903,34.56344 45.884038,-24.55821 13.85152,9.09558 -36.360633,132.79626 19.045953,123.7005 3.46316,89.13716 50.21251,31.83465 z M 19.517723,48.94624 9.9391485,47.10815 l -7.4848789,5.96806 0.2448453,9.28004 7.7905341,5.60403 9.469476,-2.29201 4.017815,-8.46204 z m 120.439117,16.44997 -10.17664,-1.42372 -7.60383,6.14795 0.6945,9.09012 8.47029,5.18718 9.86746,-2.62173 3.83417,-8.45658 z"
         horiz-adv-x="350,00" />
      <glyph
         glyph-name="д"
         unicode="д"
         id="glyph3214"
         d="m 144.18859,708.99764 -11.48106,-1.26507 -7.98313,9.97638 1.52638,13.70546 9.88639,7.11402 10.80183,-4.83442 3.58318,-13.14243 z M 83.045844,580.56138 69.959135,578.0303 l -9.809507,10.69265 0.854574,15.86459 10.875046,9.09014 12.706451,-4.52936 L 89.5553,594.4102 Z M 264.20271,342.03563 241.43915,425.48298 163.23383,482.44963 27.892652,423.19233 -10.776249,241.55588 136.38045,69.58091 313.6129,129.48227 402.76623,291.7957 326.21958,548.05634 161.73719,715.86199 151.78379,700.34416 148.3659,627.01701 99.756015,593.31384 91.021347,574.18501 286.75951,416.10724 272.54632,273.68506 l -94.35687,-87.22659 -75.32319,44.21265 -25.563375,78.51554 35.983635,79.86849 90.22745,15.45842 z"
         horiz-adv-x="450,00" />
      <glyph
         glyph-name="е"
         unicode="е"
         id="glyph3268"
         d="M 289.21303,165.99813 181.219,142.65325 94.07567,248.60293 134.13801,438.95315 250.8413,372.51017 128.9125,329.41201 123.68696,302.47564 318.77307,334.79928 308.32202,455.11497 83.624623,537.71983 3.500001,404.83379 14.002341,162.4066 101.0943,85.18906 l 175.92589,-25.1406 5.89708,9.59813 -32.33129,42.22059 37.87372,40.95079 z m 9.82998,-111.51255 -6.30847,-4.20534 -7.31454,2.17391 -2.81262,6.91621 3.80729,6.45046 7.56015,1.12735 5.62013,-5.04466 z m 11.75742,104.37835 -3.28916,-6.63882 -7.38861,-1.63861 -5.92426,4.59544 9.6e-4,7.36902 5.92571,4.59359 7.38808,-1.64086 z"
         horiz-adv-x="400,00" />
      <glyph
         glyph-name="ж"
         unicode="ж"
         id="glyph3322"
         d="m 415.62602,64.79122 -5.11761,-3.22264 -5.52114,2.31669 -1.76711,6.11152 3.31757,5.30424 5.90406,0.50276 4.04466,-4.6773 z m 33.36005,49.87547 -5.5357,-2.51112 -5.26729,3.11373 -1.03252,6.39386 3.97976,4.85932 5.99521,-0.33441 3.49613,-5.27632 z m -408.749756,431.70563 -6.755528,-6.93857 -9.229411,1.38439 -4.753346,8.66489 3.302071,9.42053 8.870959,3.08233 7.759846,-5.57694 z M 6.660129,50.0141 76.662755,248.71763 67.77358,355.71179 l -92.225676,104.44668 8.889197,11.46373 47.779535,5.09489 3.889031,56.52231 9.44479,8.43846 L 125.27567,471.30382 125.5537,164.65073 78.885299,84.40506 Z M 386.07923,530.9682 C 382.19022,529.05756 284.96438,415.69471 284.96438,415.69471 l -2.50053,-258.56937 41.39047,-8.61824 75.00272,-76.08548 5.55577,7.96082 2.22237,36.30168 25.27867,6.36865 6.66692,8.27923 -101.52745,166.59463 z m -237.78663,-3.18442 3.3335,-466.18897 108.89291,3.82118 2.22226,463.64157 z m -170.486298,-53.90741 -5.37943,-7.93407 -9.091268,-0.39953 -5.957245,7.43588 1.662755,9.67189 8.030631,4.6248 8.351283,-3.90487 z"
         horiz-adv-x="475,00" />
      <glyph
         glyph-name="з"
         unicode="з"
         id="glyph3385"
         d="m 33.449138,-148.0343 -9.943114,-2.7895 -8.329207,6.2215 -0.443518,10.54763 7.776536,6.93117 10.140393,-1.9046 4.868343,-9.30611 z m -39.0656728,103.08259 -11.0098262,-0.29941 -7.093018,8.62813 2.164934,11.05845 9.792669,5.16153 10.0463724,-4.6221 2.7348348,-10.92527 z M 287.35178,205.6394 300.34067,51.04002 232.859,-69.26961 46.085278,-136.60047 37.944562,-121.071 57.336811,-64.62601 9.8145011,-36.41696 6.2302404,-18.58376 127.75914,8.56299 l 58.20444,67.29438 -1.8776,72.58184 79.32698,12.49752 z M -16.812987,482.98834 79.881372,536.82379 244.16794,516.15482 327.71935,378.68204 247.9231,186.8931 32.003547,161.89806 l -2.229592,11.89677 23.82155,44.10183 -31.918473,28.11936 -3.55e-4,12.97813 157.715113,43.26071 54.44929,127.85934 -108.89853,50.95146 z m 40.379256,-319.86986 -5.292058,-6.42097 -8.177336,0.25508 -4.9049627,6.73874 2.0610393,8.14818 7.4749384,3.42193 7.260161,-3.88111 z m -9.688364,84.04295 -5.822708,-5.67719 -7.89469339,1.19882 -4.02182381,7.17198 2.87951398,7.7446 7.61262122,2.48527 6.613179,-4.64542 z"
         horiz-adv-x="375,00" />
      <glyph
         glyph-name="и"
         unicode="и"
         id="glyph3430"
         d="m 272.47385,508.31442 -2.23503,-182.16115 -78.86939,-219.44231 -91.19761,-33.46667 -73.306562,128.5115 -2.880576,211.09783 -36.712899,77.69051 10.1353375,5.77805 51.3645965,-22.51142 28.476624,45.77404 12.913091,1.55741 20.551488,-240.97883 26.4916,-82.47262 90.17224,109.57997 z m 17.3609,3.86945 -3.74148,-429.57281 95.40671,-5.16006 3.74148,436.02291 z m -203.643732,14.43968 -7.332048,-0.73979 -5.134463,5.42824 0.929539,7.5087 6.29353,3.93501 6.918425,-2.60189 2.333539,-7.17948 z m -93.8435025,-26.26574 -6.4345235,-3.84495 -6.937739,2.77131 -2.216703,7.30061 4.173536,6.33244 7.420977,0.59559 5.0804035,-5.5895 z"
         horiz-adv-x="475,00" />
      <glyph
         glyph-name="й"
         unicode="й"
         id="glyph3497"
         d="m 101.60541,622.57495 75.60034,-24.31775 93.53941,27.69525 -125.57341,-75.65511 z M 278.76466,472.01453 276.59965,290.025 220.5017,93.18493 109.50937,83.632 38.499135,212.02244 36.57711,356.48319 -4.7518828,491.51731 6.6515711,496.57345 51.423873,474.7997 l 30.982282,37.37216 12.508589,2.51121 19.907706,-233.34831 53.21103,-97.25577 67.04676,87.08128 z m 9.56861,41.12215 12.39277,-429.1681 76.40106,-5.15522 -5.34526,420.07583 z m -196.585005,6.78378 -7.102444,-0.73909 -4.973574,5.42311 0.900438,7.50164 6.096387,3.93123 6.701703,-2.59944 2.26042,-7.17272 z m -89.7713346,-19.31519 -6.7784607,-2.17584 -5.8317527,4.25898 -0.493817,7.48676 5.2163121,5.07678 6.998185,-1.1561 3.5102961,-6.5184 z"
         horiz-adv-x="475,00" />
      <glyph
         glyph-name="к"
         unicode="к"
         id="glyph3551"
         d="M 329.80167,555.71277 125.69172,408.37428 128.72301,243.17655 267.15408,72.3979 l 8.33619,8.09241 5.81002,62.22818 47.23836,6.69729 6.31524,11.16197 -110.64379,97.1095 -36.37604,103.24855 z M 6.017569,541.21599 11.733472,72.38785 118.90732,67.65201 107.47559,549.10863 Z m 342.804351,-398.66835 -6.17753,-3.8214 -6.54281,2.97952 -1.98108,7.53672 4.07228,6.4186 7.0593,0.46745 4.73035,-5.8361 z m -63.57095,-68.3265 -6.87796,2.36653 -5.95481,-4.49451 -0.54765,-7.97111 5.27198,-5.44516 7.1216,1.18099 3.60866,6.91783 z"
         horiz-adv-x="400,00" />
      <glyph
         glyph-name="л"
         unicode="л"
         id="glyph3605"
         d="m -48.19271,23.1512 104.76506,259.30052 44.43743,231.64945 53.89222,34.74764 82.2565,-119.68558 55.99881,-240.65833 60.29477,-94.55611 -8.21609,-6.69974 -43.70631,5.83383 -15.81455,-45.80425 -9.53646,-5.5004 -90.99896,219.8621 -19.64004,157.23193 -90.923387,-215.21619 z m 340.21366,1.81725 -7.49317,-0.65191 -5.19039,5.35319 1.02091,7.32717 6.46342,3.78366 7.03887,-2.60896 2.31379,-7.03707 z m 70.43,49.89129 -6.43543,-1.49347 -5.20005,4.01533 -0.0487,6.50054 5.13899,4.09076 6.45721,-1.39954 2.913,-5.83587 z"
         horiz-adv-x="400,00" />
      <glyph
         glyph-name="м"
         unicode="м"
         id="glyph3659"
         d="m 386.22344,416.07332 -16.86772,-208.77274 8.05446,-126.60615 -7.51181,-1.75691 -24.82843,23.4782 -23.4491,-29.16991 -8.11119,-0.66875 -1.10673,173.03156 34.96679,110.50376 z M 12.867314,426.63807 33.473874,271.69503 12.25219,70.88434 19.76401,69.12741 44.592436,92.60561 68.041519,63.4357 76.15273,62.76695 95.628613,199.32517 58.385983,372.21104 Z M 43.67288,538.69393 172.41295,436.9544 l 66.20915,-1.42303 112.18774,98.89366 57.93294,-64.03189 -118.62466,-179.289 -146.21187,4.26888 -152.64899,176.44316 z m 269.47941,-482.50487 5.31101,-2.43798 5.02792,3.09066 0.95874,6.29206 -3.83241,4.75527 -5.7377,-0.36193 -3.3223,-5.207 z m 57.90009,6.27112 5.74049,-1.74549 4.77662,4.02602 0.2158,6.76575 -4.50742,4.41078 -5.83655,-1.26557 -2.77073,-5.989 z M 71.085628,47.30609 l -4.296906,2.56307 -0.887415,5.35547 3.190265,4.1151 4.86558,-0.22408 2.877064,-4.39443 -1.277984,-5.25579 z m -53.297049,7.61437 -4.834818,-1.43448 -4.0230453,3.30881 -0.1818287,5.56052 3.796291,3.62511 4.915735,-1.04021 2.333613,-4.92211 z"
         horiz-adv-x="475,00" />
      <glyph
         glyph-name="н"
         unicode="н"
         id="glyph3713"
         d="m 92.193607,345.33272 17.789723,-96.21903 196.73447,18.80127 -13.60385,72.44096 z M 358.08679,75.74498 266.5429,531.38416 l 13.95336,0.94591 50.53092,-38.27009 43.5497,40.34178 14.4019,-0.25273 z M 46.563965,536.4953 5.3373442,73.81774 19.660716,72.08982 67.601714,103.12603 112.07635,71.1912 127.77322,71.05266 Z M 17.91249,51.70415 l -7.197836,-2.5813 -6.3878267,4.36788 -0.7676478,8.02799 5.430514,5.64284 7.5395065,-0.99145 3.970971,-6.87917 z m 109.19747,-1.87979 -6.93559,-3.56707 -6.94998,3.53546 -1.73074,7.97586 4.79159,6.41011 7.70589,0.016 4.81745,-6.38833 z m 150.04838,487.8263 -7.62799,-0.67041 -5.24945,5.91654 1.08209,8.04827 6.59882,4.11938 7.14644,-2.91142 2.31268,-7.74994 z m 108.2713,2.43193 -7.49002,0.46383 -4.32879,6.50892 2.09202,7.65301 6.9376,3.03431 6.55899,-3.86938 1.24132,-7.85925 z"
         horiz-adv-x="450,00" />
      <glyph
         glyph-name="о"
         unicode="о"
         id="glyph3776"
         d="M 26.168501,208.31218 9.856707,361.88433 121.74571,517.97079 270.43189,516.67452 403.48529,299.8632 339.62813,128.74711 173.02476,102.83758 109.409,288.53868 l 83.19869,84.90675 84.35401,-91.30873 -86.29005,-20.04913 21.94425,44.5714 -38.47636,-36.43287 12.33848,-30.36018 120.4057,29.40471 L 191.05565,398.19333 86.31022,290.2864 147.55327,120.41585 88.48754,94.25851 5.17087,139.04068 Z"
         horiz-adv-x="450,00" />
      <glyph
         glyph-name="п"
         unicode="п"
         id="glyph3837"
         d="m 116.00294,189.7099 -2.21482,158.99676 86.35351,161.51251 137.41229,-55.95973 54.58941,-368.95811 -14.64586,-2.66472 -47.12506,23.79866 -44.2013,-31.16486 -17.08259,0.2157 18.48157,200.77398 -18.49961,169.63733 -101.7078,-78.16057 z M 8.0514496,540.00375 17.798545,80.24344 102.47544,84.01186 94.556016,523.67339 Z M 390.52657,79.10813 l 7.42197,-6.39595 -0.23801,-9.95178 -7.71851,-6.01372 -9.38705,2.45284 -3.98681,9.07231 4.41545,8.8602 z m -108.55771,-10.92577 6.08406,-7.99518 -2.28858,-9.87379 -8.93782,-4.31724 -8.85668,4.49029 -2.10631,9.9165 6.2301,7.87548 z"
         horiz-adv-x="450,00" />
      <glyph
         glyph-name="р"
         unicode="р"
         id="glyph3891"
         d="M -2.192574,-113.97677 26.102603,119.17151 -5.00265,332.66999 135.07125,524.11922 337.75607,464.78406 389.0027,209.97755 276.26035,120.45091 148.44297,131.99478 146.43565,153.50688 299.606,202.40227 277.39913,384.89878 117.9654,360.1068 l 33.99407,-475.57315 -19.02624,-3.49228 -58.043819,67.08596 -55.041907,-65.02585 z m 14.274931,-9.89188 4.916063,-9.21465 -2.910346,-10.37909 -8.545208,-3.72798 -7.745361,5.73034 -1.113094,10.87383 6.357349,7.82891 z m 136.192403,0.2288 6.96564,-7.24867 -0.35774,-11.08542 -7.4116,-6.5746 -8.88448,2.88723 -3.66711,10.17461 4.31151,9.80051 z"
         horiz-adv-x="450,00" />
      <glyph
         glyph-name="с"
         unicode="с"
         id="glyph3945"
         d="M 276.9699,229.72315 330.86958,137.14614 170.51747,65.02237 15.555539,155.44639 -24.869589,423.48883 107.18518,542.97773 293.1397,454.70664 l -9.76926,-11.30305 -46.82543,-21.52935 0.33706,-36.60017 -9.7694,-10.22667 -118.5797,75.35339 -62.658491,-171.15976 86.239741,-143.70953 144.85597,9.15012 z m -43.98449,143.2505 6.2639,6.32845 10.27537,0.14208 6.54926,-6.15165 -2.1085,-7.8127 -9.17852,-3.59071 -9.33705,3.33522 z m 58.02394,70.03639 4.80295,8.00896 11.05607,2.07674 8.98376,-5.4193 0.14616,-8.83457 -8.8011,-5.5971 -11.12131,1.85501 z"
         horiz-adv-x="375,00" />
      <glyph
         glyph-name="т"
         unicode="т"
         id="glyph3999"
         d="m 225.35766,80.91931 5.04904,266.6951 75.77812,129.70972 L 434.8469,502.07329 514.85398,353.92136 482.75225,71.16325 463.88934,364.60429 353.94989,423.02459 305.76915,256.58528 322.78409,84.2012 310.30066,81.7825 275.0309,121.45577 239.23324,80.81136 Z M -9.9664474,83.87387 16.317492,383.73342 74.113208,514.98696 210.08752,518.96033 276.91356,463.40177 232.13657,388.31697 138.95048,400.85739 97.374055,284.23843 93.416747,85.36359 77.362828,84.03358 42.547023,126.05682 5.8273131,82.39243 Z m 321.1123874,-13.9627 3.38278,6.72367 7.1405,1.51143 5.52133,-4.83902 -0.25564,-7.54547 -5.84004,-4.57009 -7.02674,1.84664 z m -87.60686,-1.55329 4.70694,5.94474 7.36664,-0.0566 4.47915,-6.01539 -1.78121,-7.44437 -6.70038,-3.26756 -6.57392,3.36966 z m -146.254664,3.03178 4.533823,6.95297 8.019915,0.72225 5.466752,-6.0524 -1.202998,-8.26947 -6.966858,-4.25944 -7.484493,2.95807 z m -91.04407,0.08 5.8716137,6.37977 8.40923511,-0.72683 4.61454669,-7.28574 -2.65497,-8.35861 -7.9252902,-3.13732 -7.2276323,4.44646 z"
         horiz-adv-x="575,00" />
      <glyph
         glyph-name="у"
         unicode="у"
         id="glyph4053"
         d="M -23.00959,25.61596 151.61454,259.81833 15.22975,482.5388 41.182688,491.91037 179.0394,303.06432 h 52.95083 l 72.45894,188.70977 30.65571,-4.493 L 259.8591,204.21626 138.35286,23.93093 Z m 53.689154,474.73984 -17.635225,-5.62488 -14.993754,11.65765 -1.061694,20.16178 13.669841,13.48357 18.107715,-3.34792 8.910114,-17.65843 z m 300.770186,0.18311 -18.41948,2.92562 -9.40883,17.69498 6.68681,19.13967 17.74717,6.17178 15.44357,-11.44355 1.5106,-20.44169 z"
         horiz-adv-x="375,00" />
      <glyph
         glyph-name="ф"
         unicode="ф"
         id="glyph4107"
         d="m 189.57349,98.88068 -6.77721,-77.26131 84.03851,13.55472 -13.55463,85.39397 z m -18.75945,301.35009 10.06367,-169.16733 53.67357,19.16908 -7.66762,137.05916 z m 15.81448,182.58584 -8.62612,-75.71806 52.71503,12.46 12.45993,63.25806 z M 316.02008,260.77554 316.97851,380.5825 102.28441,431.38057 71.613868,327.86746 161.14722,222.94062 137.74734,214.76967 11.231189,280.90309 15.06498,453.42508 275.76493,516.68319 412.82402,372.91481 390.7796,180.26528 131.1524,92.97036 l -4.74395,10.16599 8.1326,46.76334 -37.614043,25.75371 -3.090712,10.13809 z M 126.26013,91.84513 l -3.90341,-7.5275 -8.38088,-1.67332 -6.54753,5.44087 0.21663,8.4579 6.81734,5.10607 8.28459,-2.09083 z m -33.712651,83.95541 -5.361392,-6.71287 -8.958678,-0.26807 -5.80985,6.37859 1.713868,8.22206 7.947075,3.87406 8.195923,-3.39109 z"
         horiz-adv-x="475,00" />
      <glyph
         glyph-name="х"
         unicode="х"
         id="glyph4161"
         d="M 209.06338,385.14595 141.95073,321.05456 0.7947596,461.29807 10.0761,471.58438 l 53.89396,9.59118 6.59897,54.47689 10.37782,8.37619 z M 214.22114,241.07984 362.64686,63.71845 255.11387,304.3032 Z M 404.04457,562.79197 3.1939796,164.42833 17.32984,151.00031 76.90201,148.76236 84.97965,89.45542 96.08639,76.0274 Z M 86.71186,63.37454 l -8.72409,-4.16645 -8.58445,4.46661 -1.9806,9.73616 6.11473,7.67425 9.6055,-0.16632 5.86315,-7.88195 z m -9.257,484.28641 -7.14876,-5.13023 -8.32976,2.59002 -3.23838,8.3599 4.29155,7.83463 8.58992,1.40972 6.41992,-6.07674 z M 3.5854096,473.3768 l -5.80109,-6.78165 -8.7361996,0.46909 -5.09278,7.36668 2.38554,8.71694 8.0676396,3.5032 7.67449,-4.3486 z m 3.35024,-333.78565 -8.01483,-5.41042 -9.0813196,3.11666 -3.3095,9.2968 4.95458,8.47629 9.4876096,1.27298 6.87637,-6.88894 z"
         horiz-adv-x="400" />
      <glyph
         glyph-name="ц"
         unicode="ц"
         id="glyph4215"
         d="m 415.6649,12.47765 1.48005,-6.22801 -3.15964,-5.26317 -5.42002,-0.33518 -3.59897,4.84535 0.93211,6.37718 4.76136,3.10688 z m -81.70072,-53.04727 -4.07997,-4.35211 -5.39657,1.09126 -2.64943,5.71286 2.09279,6.03253 5.25915,1.8096 4.46515,-3.77602 z m -157.74695,553.81506 -8.19749,2.74945 -3.30875,9.35872 4.07147,8.9205 8.38587,1.7651 6.38548,-6.71954 -0.42368,-10.14418 z m -120.227595,24.06942 -7.605105,-0.5289 -5.088751,6.76185 1.259624,8.96133 6.659363,4.41266 7.04452,-3.45867 2.125032,-8.72573 z M 318.7695,-28.1479 229.41302,184.21701 244.14748,334.58708 351.01667,516.29645 303.26662,289.83778 411.84602,22.61558 401.08581,14.71193 352.19888,35.05259 329.66763,-24.07983 Z M 46.51568,530.01537 14.8551,182.2845 126.12139,81.69155 l 136.33918,-6.80001 -36.97996,90.13326 -112.80993,71.51785 64.5751,269.83819 -13.53444,5.1695 -56.27687,-29.15487 -46.613057,48.81745 z"
         horiz-adv-x="450,00" />
      <glyph
         glyph-name="ч"
         unicode="ч"
         id="glyph4269"
         d="m 19.965194,518.27945 -6.233686,-0.6897 -4.360169,5.12038 0.796639,7.07484 5.353549,3.70173 5.879134,-2.45878 1.977628,-6.76786 z m 91.804936,-2.55516 -5.66562,1.65719 -2.39481,6.07796 2.67941,5.92189 5.73596,1.30653 4.47317,-4.2927 -0.15795,-6.65943 z m 1.54253,-6.27351 -23.795976,-143.53265 42.304026,-76.28306 96.06537,17.06325 -0.88132,-59.21971 -108.4041,-48.17879 -98.709358,96.35759 -7.932035,216.80451 13.220044,2.00752 36.134631,-29.10804 39.660068,28.10431 z m 138.36939,-8.02975 -19.38928,-515.91466 116.33606,-4.01493 -12.33873,531.97427 z"
         horiz-adv-x="425,00" />
      <glyph
         glyph-name="ш"
         unicode="ш"
         id="glyph4323"
         d="m 491.48824,532.14929 -7.47069,-0.48635 -5.091,4.82212 1.12238,6.49922 6.49046,3.28217 6.97127,-2.40639 2.20237,-6.28286 z m -94.79343,-12.25908 -6.98551,-1.16001 -5.38895,4.06902 0.26575,6.23405 5.72007,3.70466 6.86736,-1.6144 2.84328,-5.71771 z m -84.55409,8.25086 -7.34415,1.20233 -3.50776,5.78802 2.9701,6.01519 7.21129,1.71292 6.02235,-3.87937 0.29802,-6.55029 z m -93.81529,3.45508 -7.42617,-0.31063 -4.90691,4.90107 1.30737,6.4221 6.53724,3.10711 6.84438,-2.54754 1.99757,-6.28388 z m 72.89267,-378.19097 80.28676,-41.77109 37.03943,100.8085 -20.2461,302.32935 11.9279,2.20353 47.71156,-19.2804 34.52815,31.12399 10.51546,0.55049 16.63624,-298.74862 -69.6841,-165.26009 -92.91213,-11.0172 -64.66179,47.92553 z m -334.835582,332.72172 94.167563,46.27291 57.756209,-109.0718 4.97143,-277.29567 83.50315,69.25636 12.79563,312.24778 11.73098,0.45637 37.66705,-38.56071 42.31513,36.56347 12.84728,-2.06969 L 269.80384,107.2277 99.046565,47.73364 6.134503,149.09289 56.434178,461.58908 17.905413,501.55131 Z"
         horiz-adv-x="575,00" />
      <glyph
         glyph-name="щ"
         unicode="щ"
         id="glyph1098"
         d="m 508.35898,28.48758 -5.84835,1.0448 -2.8289,5.2248 2.3207,5.46895 5.72295,1.59541 4.81553,-3.47903 0.28235,-5.93488 z m -39.44977,-68.18803 -5.89112,1.83543 -2.23758,5.75135 3.10099,5.33442 6.10447,0.89944 4.51113,-4.21072 -0.47922,-6.15165 z m -13.17029,576.92313 -8.17114,0.66772 -4.57198,6.80528 2.46994,7.81741 7.65199,2.9431 7.07185,-4.1475 1.16656,-8.11501 z m -112.59859,-2.26134 -8.05346,-1.34818 -6.07525,5.45591 0.47754,8.15146 6.67091,4.70889 7.84074,-2.27963 3.10648,-7.55148 z M 301.91656,48.31207 456.03891,-33.54549 461.79448,-23.953 459.876,15.69761 495.04919,32.32457 500.80476,43.19524 395.28534,75.17102 381.85552,54.06756 Z M 212.65751,490.879 175.03595,379.07644 l 22.0005,-208.6173 89.49417,-17.91959 -76.10206,165.63359 z M 47.39923,532.47435 -14.10032,326.26986 20.26703,114.63808 148.69281,56.75594 l 226.10147,10.85322 86.82322,122.99943 -3.61758,341.86576 -14.11174,0.588 -47.32386,-44.76576 -49.24243,41.24852 -15.98789,-1.59883 17.90648,-258.36287 -39.64986,-130.46039 -221.2711,34.5337 -65.23023,184.17939 z"
         horiz-adv-x="550,00" />
      <glyph
         glyph-name="ъ"
         unicode="ъ"
         id="glyph1189"
         d="m -52.728891,455.95919 -5.79515,-2.95256 -6.02564,2.49481 -1.71856,6.06361 3.88257,5.06631 6.56002,0.25456 4.29769,-4.7496 z m 41.28438,88.35444 -6.44881,-1.52676 -5.26817,3.87268 -0.12036,6.35603 5.11788,4.05316 6.50243,-1.30201 2.99038,-5.67647 z m -39.25075,-91.66258 97.6182,-42.03641 L 24.14535,214.44523 69.700549,88.33593 164.06482,61.86907 l 122.02287,49.82149 26.03153,124.5512 -95.99127,80.95887 -79.72165,-20.23968 -1.62692,-20.23962 86.22949,1.55684 35.79336,-96.5279 -82.97556,-63.8326 -68.33275,85.62927 29.28546,202.39703 -43.928221,80.95894 -95.17781,63.05438 -5.49093,-10.11993 12.81232,-49.04234 -50.43614,-26.8565 z"
         horiz-adv-x="375,00" />
      <glyph
         glyph-name="ы"
         unicode="ы"
         id="glyph686"
         d="m 412.70587,88.34182 -4.92895,-2.50934 -5.21513,1.96512 -1.5744,4.96105 3.25211,4.22141 5.62957,0.30366 3.76781,-3.84537 z m -103.21472,1.71752 -4.69382,-2.06243 -4.68678,2.07567 -1.1506,4.65195 3.25201,3.72391 5.2058,-0.006 3.23951,-3.73401 z m 50.12376,444.50531 -59.74458,-433.09613 h 10.59975 l 43.28241,29.13472 46.81587,-31.56228 12.36626,0.81282 z m -235.47349,-7.72562 -7.17133,1.23506 -3.41746,5.90709 2.91006,6.13087 7.04606,1.73808 5.87637,-3.96356 0.28127,-6.68061 z m -107.743268,10.87315 -6.4208243,-0.19775 -4.1728013,4.47569 1.2176145,5.77957 5.6912191,2.73124 5.878897,-2.37379 1.639985,-5.69119 z M 7.8437217,533.47239 -16.006142,283.44727 23.596931,95.06634 128.72451,66.78004 l 140.23714,39.0804 32.82416,179.61003 -91.51538,95.45264 -97.15246,-20.58962 -2.91685,-14.39262 104.12858,-6.74702 26.63595,-142.07904 -117.11919,-30.8843 -41.778324,85.00772 44.661024,271.10174 -11.88846,1.77142 -50.676112,-27.83385 -45.164182,36.84216 z"
         horiz-adv-x="475,00" />
      <glyph
         glyph-name="ь"
         unicode="ь"
         id="glyph1255"
         d="m 127.27322,540.62148 -6.95904,2.04121 -2.74303,6.71358 3.53867,6.33039 7.15562,1.18034 5.38428,-4.85859 -0.44115,-7.23882 z m -97.59877,15.54001 -6.33644,0.10409 -3.86951,5.01874 1.51125,6.15453 5.75395,2.65572 5.66394,-2.84287 1.30871,-6.20076 z M 20.29524,552.03956 -12.71639,276.949 48.49106,104.20738 194.70874,59.32192 307.3297,127.94213 329.0923,307.48496 192.39573,381.61399 102.05873,339.5166 98.77118,319.55736 213.478,330.60783 258.36355,223.8347 166.01847,139.54911 80.29588,266.06764 l 48.69116,269.3989 -12.92151,3.40047 -48.09172,-23.36988 -36.11739,36.26086 z"
         horiz-adv-x="375,00" />
      <glyph
         glyph-name="э"
         unicode="э"
         id="glyph1321"
         d="m -23.780591,147.89244 -2.90464,-7.86301 -7.9586,-2.63139 -7.01974,4.58158 -0.79468,8.34414 6.02866,5.82422 8.3123,-1.08205 z m 56.32412,-102.34437 -3.35545,-7.42548 -7.89755,-2.00623 -6.4927,4.92355 -0.19868,8.14615 6.24492,5.23369 7.98603,-1.61858 z M 143.13139,378.96464 70.779829,353.95674 148.27957,345.91966 Z M -17.598601,568.72104 156.41076,469.81042 171.54933,216.82097 -25.841121,158.4256 l 6.35243,-11.27184 67.34998,-22.66619 -14.97328,-67.19344 5.78234,-10.3151 203.992761,102.96812 52.45527,154.1275 -67.99761,175.49841 z"
         horiz-adv-x="350,00" />
      <glyph
         glyph-name="ю"
         unicode="ю"
         id="glyph1387"
         d="M 16.789421,74.06191 23.849525,63.2852 18.546314,51.77358 4.873252,48.19638 -6.873573,55.24619 -7.848571,67.61521 2.682469,75.98874 Z m 36.757404,445.22642 -14.466273,-3.63236 -12.290632,7.55409 -0.859974,13.05238 11.218281,8.72164 14.848932,-2.17612 7.298077,-11.4364 z M 37.316139,509.86112 69.731859,284.59404 3.356613,82.01566 21.879927,79.44416 131.47641,243.0251 l 34.38613,-24.81645 29.16705,-140.0173 120.13682,-5.26048 61.74437,197.07791 -32.41598,209.06086 -106.50915,48.6187 -75.63691,-157.20086 24.32858,-11.24126 83.72431,100.37592 27.78494,-152.33936 -21.61062,-111.82271 -64.5903,129.33865 -94.40151,45.68945 -60.200837,144.40639 z"
         horiz-adv-x="450,00" />
      <glyph
         glyph-name="я"
         unicode="я"
         id="glyph1453"
         d="m -22.715943,118.46378 -0.27335,-5.7335 -5.031281,-3.37825 -6.000734,1.52134 -2.451498,5.27504 2.943732,5.05661 6.12233,1.03033 z m 95.864469,-58.53037 0.244877,-6.13102 -5.045137,-3.99896 -6.536105,1.14426 -3.105239,5.42578 2.663916,5.62168 6.427097,1.58434 z M -26.727321,125.40092 131.48552,288.00148 -4.8864784,354.81019 15.356148,481.55086 157.05523,547.377 296.62341,452.07614 287.47603,51.68817 260.84096,364.11732 161.31694,484.49794 116.56985,422.60142 251.87632,323.37093 256.13803,266.38713 76.617144,60.55626 l -11.186886,7.3688 -23.438916,52.56263 -59.12999,-2.45558 z"
         horiz-adv-x="350,00" />
      <glyph
         glyph-name="ё"
         unicode="ё"
         id="glyph10119"
         d="m 202.42567,610.36411 -38.25131,2.83625 -9.12294,37.25561 32.61303,20.18906 29.27898,-24.7781 z M 58.429631,621.59319 19.211514,616.49348 2.2423339,652.21618 30.97294,679.39375 65.69853,660.46766 Z M 285.89632,188.06244 113.08177,196.00257 83.134459,311.8351 l 55.580951,161.60493 125.1738,-69.1258 -147.62216,-38.2331 -8.24693,-27.36342 228.73147,26.36293 -11.2096,125.17378 L 84.535677,576.19472 -1.4045401,437.94301 9.8600576,185.7271 103.27332,105.39168 272.81848,77.83472 l 6.32511,9.98568 -34.67793,43.92538 40.62264,42.60429 z m 10.86797,-115.93504 -6.76628,-4.37518 -7.84545,2.26176 -3.01675,7.1954 4.08362,6.71092 8.10889,1.17286 6.02806,-5.24835 z m 13.27139,108.26267 -3.5279,-6.90689 -7.92489,-1.70477 -6.35427,4.78096 0.001,7.66653 6.35583,4.77913 7.92432,-1.70711 z" />
      <glyph
         glyph-name="0"
         unicode="0"
         id="glyph2314"
         d="m 210.71781,344.58159 -69.90743,-17.02337 -37.79277,61.22541 46.55021,54.86275 66.56239,-27.31836 z m -21.82724,319.81968 36.44251,4.40572 -27.27982,-21.81853 z M 157.65415,652.40261 34.265524,538.71365 -25.183073,303.13691 74.773505,138.65876 l 181.587765,-5.03502 88.2969,267.48832 -81.63314,220.07184 -4.16485,77.20402 -11.46913,-0.92968 -2.945,-81.59051 -26.21049,-11.57097 -47.41449,70.01952 -10.60199,-5.63721 65.08447,-113.03999 42.71931,-212.22185 -77.46794,-150.06701 -133.27136,88.63697 3.960733,174.95785 106.935997,178.15191 z m 94.39673,67.0566 6.63787,-2.98086 1.81803,-7.07051 -4.37084,-5.83586 -7.26841,-0.20664 -4.69264,5.5781 1.41671,7.16245 z m -101.49163,-35.38996 4.49019,5.89147 7.38612,0.14779 4.7201,-5.70737 -1.50018,-7.26459 -6.59086,-3.35146 -6.71845,3.08537 z"
         horiz-adv-x="450" />
      <glyph
         glyph-name="1"
         unicode="1"
         id="glyph3234"
         d="m 241,29.5 -6.7983,-6.11682 -9.02099,1.50136 -4.45069,7.98897 3.47107,8.46073 8.77904,2.56139 7.47622,-5.26673 z m -146,-6 -8.701968,-2.06982 -7.043841,5.51296 -0.08156,8.94437 6.94214,5.64049 8.738265,-1.9108 3.954299,-8.02321 z M 6.7071068,576.07969 99.348503,731.01546 l 48.470557,2.91421 50.87794,-321.46582 -4.48528,-294.60869 36.06245,-70.71068 -10.6066,-2.82843 -50.20458,65.76093 -49.49748,2.12133 -24.041628,-68.58936 -12.020816,2.12132 37.719294,410.5742 -22.20889,199.86858 21.12958,23.55687 -29.771712,-12.89214 z"
         horiz-adv-x="300" />
      <glyph
         glyph-name="2"
         unicode="2"
         id="glyph3304"
         d="m 404.25,49.25 -9.08568,-2.36661 -7.51512,5.62791 -0.28552,9.38451 7.15908,6.07437 9.21275,-1.80989 4.32903,-8.33126 z m -5,128 -9.37527,-2.46794 -7.77489,5.79114 -0.31988,9.68938 7.37603,6.29131 9.51762,-1.84423 4.49226,-8.59105 z M -33,577 34,698 211,749 378,675 370,479 84,146 l 48,28 244.18081,16.43232 V 177.7044 l -79.90307,-19.09188 -0.70711,-56.56854 84.14571,-38.18377 V 52.5465 L 191.62594,90.73027 70.003571,51.83939 -28.991378,121.84297 77.781746,312.7618 296.98485,500.14509 308.29856,655.00148 151.32085,709.4487 29.698485,657.1228 Z"
         horiz-adv-x="500" />
      <glyph
         glyph-name="3"
         unicode="3"
         id="glyph3374"
         d="M 250.41624,425.16838 291.43438,250.17455 229.74191,98.188 6.3304045,41.69024 2.8770405,57.77551 76.660439,96.24904 l -13.16806,42.34309 -77.871852,-4.14889 -4.907157,16.84094 148.77317,30.89277 74.93546,157.28013 z M -18.868476,596.63014 53.008785,680.26928 172.19976,710.40232 329.99546,592.85062 186.14821,337.60836 50.995159,368.1861 l -29.553412,71.0298 128.474843,35.38377 -35.22218,-55.41869 10.9111,-5.3074 105.43159,154.87157 -125.37203,104.45979 z m -6.941909,-556.7056 1.633585,10.98893 9.442963,5.54896 10.1416055,-4.06948 3.203417,-10.6235 -6.14704,-9.17784 -10.8685755,-0.82106 z m -22.760934,94.50241 2.263919,11.64984 10.342585,5.45851 10.633217,-4.84322 2.916687,-11.49791 -6.996119,-9.49441 -11.640629,-0.3413 z"
         horiz-adv-x="425" />
      <glyph
         glyph-name="4"
         unicode="4"
         id="glyph3468"
         d="m 339.67857,60.0232 6.1451,-5.9067 -0.78668,-8.48723 -7.12608,-4.67666 -8.09935,2.65552 -2.97372,7.98808 4.39126,7.30535 z m -144.11128,-3.36151 4.33714,-8.13089 -3.6528,-8.46039 -8.89212,-2.41915 -7.4355,5.44387 -0.37983,9.20746 6.96189,6.03772 z m -90.25932,704.37054 -6.932459,0.11433 -4.23305,5.49125 1.654,6.73321 6.295499,2.90497 6.19635,-3.11076 1.43128,-6.7841 z m -116.775669,11.25917 -6.88552,-0.22114 -4.46579,5.24549 1.31668,6.76203 6.10771,3.18663 6.29953,-2.78834 1.74764,-6.66372 z M 319.71727,747.28824 264.51834,635.58196 214.97626,382.45433 222.08948,175.89564 186.11704,64.18181 l 15.41728,-2.6842 50.53759,95.14289 43.37322,1.42242 31.28514,-94.45179 14.08746,2.03345 -45.44846,517.614 z m -340.898899,19.67057 10.529355,-357.48066 40.821197,-92.68879 72.321197,-20.18879 102.8486,103.429 13.39963,63.0303 -128.81755,-87.02929 -19.817549,218.97071 37.653719,160.90899 -12.925019,0.30579 -29.397125,-65.78381 -59.397125,5.7162 -14.29425,70.81011 z"
         horiz-adv-x="425" />
      <glyph
         glyph-name="5"
         unicode="5"
         id="glyph3495"
         d="m 405.71773,761.83814 -9.08568,2.3666 -7.51512,-5.6279 -0.28552,-9.3845 7.15908,-6.0744 9.21275,1.8099 4.32903,8.3313 z m -5,-128 -9.37527,2.4679 -7.77489,-5.7911 -0.31988,-9.6894 7.37603,-6.2913 9.51762,1.84423 4.49226,8.59107 z m -435.25,-412.75001 67,-121 177,-51 152.15076,42.18019 29.2132,115.13857 -45.57359,201.72792 -97.13604,71.9815 -158.65433,-18.52817 -4,203.5 17,-40 275.18081,-4.4323 v 12.7279 l -79.90307,19.0919 -0.70711,56.5685 84.14571,38.1838 v 11.3137 l -188.0904,-38.1838 -121.62237,38.8909 -101.99495,-83.0036 17.886565,-243.9594 77.886565,-73.95941 126.3711,10.03092 98.9386,-75.86575 -25.51219,-166.37541 -176.98633,-4.13351 z"
         horiz-adv-x="500" />
      <glyph
         glyph-name="6"
         unicode="6"
         id="glyph3522"
         d="m 381.83766,597.37227 -11.56956,-6.34676 -12.1756,5.0883 -3.61316,12.69177 7.67005,10.73808 13.17757,0.69839 8.7621,-9.8672 z m -50.91168,133.64319 -9.49132,-7.68811 -11.92854,2.62715 -5.38334,10.96411 5.21564,11.04488 11.88712,2.80862 9.60737,-7.54258 z M 297.67344,734.91637 68.891002,614.87742 -11.926076,364.82824 10.99268,160.09249 108.86475,60.00854 297.70438,62.61359 447.50385,188.33824 342.04686,405.91821 118.22951,388.5979 l 3.14949,-20.30822 178.51952,-33.82265 54.78761,-101.9896 -59.76369,-58.14899 -171.62729,1.53306 -18.34469,247.95407 65.54613,110.60117 180.56107,59.04028 -4.17835,16.0796 -86.5112,2.23305 -21.81094,47.48788 66.56865,60.95566 z"
         horiz-adv-x="500" />
      <glyph
         glyph-name="7"
         unicode="7"
         id="glyph3577"
         d="m 53.68919,89.06776 63.52054,170.61818 157.25486,148.14654 115.7648,219.5978 -68.16855,74.98718 -190.78869,-21.42088 -79.93821,31.36883 -48.0319796,56.76508 -13.09964,-13.09963 46.5764896,-72.77574 -2.91105,-59.67611 -61.13161,-32.02132 5.63791,-14.43961 92.60936,33.3613 139.30347,-28.31369 51.09024,36.57762 L 224.6096,475.7609 93.95685,304.0374 Z m -84.58282,487.64712 -3.50171,12.13122 -11.69781,4.83452 -11.0851,-6.10267 -2.12516,-12.44443 8.43508,-9.41527 12.64356,0.70377 z m 27.7844904,196.94015 0.12826,13.34987 -10.3901904,8.42359 -13.08475,-2.84581 -5.92629,-11.97227 5.69485,-12.08337 13.02761,-3.09543 z"
         horiz-adv-x="450" />
      <glyph
         glyph-name="8"
         unicode="8"
         id="glyph3604"
         d="m 297.61047,398.96718 -11.38916,0.30522 -6.86238,9.09471 2.8319,11.03571 10.39373,4.66655 10.12884,-5.21658 2.23674,-11.17152 z m -137.92983,-50.64894 -9.82815,-5.51388 -10.43866,4.24612 -3.18866,10.80866 6.46247,9.23207 11.24721,0.70357 7.56258,-8.35476 z m 28.4143,65.53558 41.95466,-11.7473 -32.22439,25.41856 z M 119.59469,497.86494 49.94995,604.42978 70.08818,680.78727 199.30855,690.85638 182.52668,556.60146 27.487799,369.38912 -27.892354,221.70871 40.913293,97.52291 230.54836,68.99374 l 88.94389,105.72575 -20.04262,219.80749 -14.68413,-0.20977 -6.92253,-110.55054 -63.77108,-16.78185 -51.18468,76.77703 -10.06912,-6.71276 49.2011,-153.93866 -109.08212,5.03456 -25.17279,92.30024 138.62927,175.5494 61.72063,234.86175 -65.44927,52.02378 L 13.868943,707.63824 -7.108389,593.52157 100.29554,475.20942 Z"
         horiz-adv-x="400" />
      <glyph
         glyph-name="9"
         unicode="9"
         id="glyph3620"
         d="m -20.5579,152.92532 11.08517,7.15926 12.50883,-4.203 L 7.54918,143.48125 0.66808001,132.2213 -12.4256,130.5807 l -9.44645,9.21416 z M 39.7968,23.27266 48.71298,31.62094 60.79907,29.85507 66.95402,19.30477 62.543,7.91463 50.88762,4.26167 40.76461,11.09663 Z M 73.24335,21.76389 351.83874,160.88375 404.53537,446.08 367.00881,648.6479 262.21846,741.46343 74.05063,725.33714 -36.35742,557.2043 54.41544,379.73798 276.41697,413.04743 271.82075,433.07786 91.33693,454.02498 29.38384,551.82771 84.82835,614.1086 256.12452,624.87438 292.1848,378.87152 244.73023,233.85897 9.86254,159.0355 l 5.31951,-15.73896 86.44891,3.9701 25.15679,-45.8034 L 64.75683,35.8954 Z"
         horiz-adv-x="550" />
      <glyph
         glyph-name="+"
         unicode="+"
         id="glyph3653"
         d="m 167.11535,503.28007 -6.73723,0.72924 -3.63046,5.72205 2.21013,6.40606 6.38644,2.26617 5.75365,-3.58021 0.78822,-6.7306 z m -83.76409,1.34299 -6.723562,-0.19199 -4.342173,5.13699 1.30896,6.59771 5.974425,3.09022 6.14101,-2.74427 1.68331,-6.51227 z m -120.635531,-213.41479 -8.886167,1.69237 -4.217284,8.00267 3.6273,8.28678 8.740453,2.33078 7.271867,-5.38033 0.327417,-9.03996 z m 5.707662,100.72345 -6.815879,-6.09544 -9.015244,1.52843 -4.425943,8.00135 3.496183,8.4491 8.78561,2.53451 7.459295,-5.28863 z M 96.35206,306.78171 110.31428,179.77642 139.11096,316.82032 Z M 76.197488,500.54518 87.61281,400.32535 l 61.10557,-8.05788 19.4732,108.10984 -10.74384,0.67149 -33.57448,-25.51661 -37.60343,25.51661 z M 284.9102,360.04193 l -309.579331,41.78371 -0.474814,-13.76963 24.690375,-35.61113 -23.740745,-43.68297 0.474814,-12.34519 z"
         horiz-adv-x="350" />
      <glyph
         glyph-name="="
         unicode="="
         id="glyph3677"
         d="m -4.938704,341.83248 8.79993,-3.42399 8.16364,4.74524 1.37997,9.3412 -6.44284,6.90304 -9.41407,-0.73324 -5.29631,-7.81738 z m 0.35354,-100.93947 8.62062,-1.63745 6.65508,5.71894 -0.32187,8.76885 -7.05645,5.21564 -8.47738,-2.26506 -3.51466,-8.04012 z M 386.4449,288.6227 16.981596,241.24655 l -0.35356,15.20279 28.28428,42.07285 -28.28427,41.7193 1.41421,14.49569 z m 8.19466,234.22912 -8.79993,-3.42399 -8.16364,4.74524 -1.37997,9.3412 6.44284,6.90304 9.41407,-0.73324 5.29631,-7.81738 z m -0.35354,-100.93947 -8.62062,-1.63745 -6.65508,5.71894 0.32187,8.76885 7.05645,5.21564 8.47738,-2.26506 3.51466,-8.04012 z M 3.255968,469.64204 372.71926,422.26589 l 0.35356,15.20279 -28.28428,42.07285 28.28427,41.7193 -1.41421,14.49569 z"
         horiz-adv-x="475" />
    </font>
</defs>
</svg>
